<svg width="91" height="94" viewBox="0 0 91 94" fill="none" xmlns="http://www.w3.org/2000/svg">
<path d="M28.4026 7.41672C35.2615 0.675995 42.6316 -0.29998 45.6247 0.0664252C45.7187 0.077939 45.8075 0.077939 45.9016 0.0664252C48.8952 -0.300042 56.2672 0.676327 63.1272 7.42016C63.2505 7.54134 63.4037 7.63168 63.5703 7.67773L87.1506 14.1967C89.083 14.7309 90.3214 16.6132 90.0471 18.5992L81.4806 80.6322C81.2633 82.2059 80.1353 83.5018 78.6067 83.9341L46.0315 93.1466C45.8559 93.1963 45.6701 93.1969 45.4942 93.1485L11.9445 83.9214C10.4027 83.4973 9.2616 82.1958 9.04285 80.6118L0.483536 18.6313C0.207367 16.6315 1.46468 14.7393 3.41532 14.2192L27.9506 7.67667C28.1206 7.63134 28.2771 7.54005 28.4026 7.41672Z" fill="url(#paint0_linear_434_2312)"/>
<path d="M30.2854 10.1858C36.4258 4.28077 42.9737 3.50307 45.5243 3.86744C48.0749 3.50307 54.6228 4.28077 60.7632 10.1858C61.0169 10.4297 61.3274 10.6112 61.6674 10.7019L84.5638 16.8073C85.5335 17.0659 86.1615 18.0033 86.0316 18.9985L78.1156 79.6882C77.9857 80.6844 77.137 81.4296 76.1324 81.4296L47.0415 89.033C46.0468 89.293 45.0018 89.293 44.0071 89.033L14.9162 81.4296C13.9116 81.4296 13.0629 80.6844 12.933 79.6882L5.01695 18.9985C4.88714 18.0033 5.51506 17.0659 6.48484 16.8073L29.3812 10.7019C29.7212 10.6112 30.0317 10.4297 30.2854 10.1858Z" fill="white"/>
<g filter="url(#filter0_i_434_2312)">
<path d="M31.6753 13.5178C37.1659 8.26174 43.0102 7.56905 45.2901 7.89475C47.57 7.56905 53.4143 8.26174 58.9049 13.5178C59.1591 13.7612 59.4691 13.9425 59.8091 14.0332L80.0953 19.4426C81.0651 19.7012 81.693 20.6385 81.5632 21.6338L74.5172 75.6532C74.3873 76.6493 73.5386 77.3945 72.534 77.3945H18.0462C17.0416 77.3945 16.1929 76.6493 16.063 75.6532L9.01695 21.6338C8.88714 20.6385 9.51506 19.7012 10.4848 19.4426L30.771 14.0332C31.111 13.9425 31.4211 13.7612 31.6753 13.5178Z" fill="#AD593F"/>
</g>
<g opacity="0.2">
<mask id="mask0_434_2312" style="mask-type:alpha" maskUnits="userSpaceOnUse" x="9" y="7" width="73" height="71">
<path d="M31.6753 13.5178C37.1659 8.26174 43.0102 7.56905 45.2901 7.89475C47.57 7.56905 53.4143 8.26174 58.9049 13.5178C59.1591 13.7612 59.4691 13.9425 59.8091 14.0332L80.0953 19.4426C81.0651 19.7012 81.693 20.6385 81.5632 21.6338L74.5172 75.6532C74.3873 76.6493 73.5386 77.3945 72.534 77.3945H18.0462C17.0416 77.3945 16.1929 76.6493 16.063 75.6532L9.01695 21.6338C8.88714 20.6385 9.51506 19.7012 10.4848 19.4426L30.771 14.0332C31.111 13.9425 31.4211 13.7612 31.6753 13.5178Z" fill="url(#paint1_linear_434_2312)"/>
</mask>
<g mask="url(#mask0_434_2312)">
<rect x="-14.3457" y="8.1875" width="118.025" height="13.8942" transform="rotate(39.7716 -14.3457 8.1875)" fill="url(#paint2_linear_434_2312)"/>
<rect x="22.8467" y="-24.6855" width="118.025" height="27.2657" transform="rotate(39.7716 22.8467 -24.6855)" fill="url(#paint3_linear_434_2312)"/>
</g>
</g>
<path d="M6.2002 60.8945H84.2002L82.4455 73.1774C82.3047 74.1627 81.4609 74.8945 80.4656 74.8945H9.93478C8.93948 74.8945 8.09564 74.1627 7.95489 73.1774L6.2002 60.8945Z" fill="url(#paint4_linear_434_2312)"/>
<rect x="11" y="74.8945" width="70" height="3" fill="url(#paint5_linear_434_2312)"/>
<path d="M45.1094 53V28.4688L46.0273 29.7773L40.3242 32.9023V28.4102L48.332 24.2109H49.8164V53H45.1094Z" fill="url(#paint6_linear_434_2312)"/>
<path d="M27.4602 71.67H24.6802L24.2202 73H22.7502L25.2602 66.01H26.8902L29.4002 73H27.9202L27.4602 71.67ZM27.0802 70.55L26.0702 67.63L25.0602 70.55H27.0802ZM30.9984 69.5C30.9984 68.8133 31.1518 68.2 31.4584 67.66C31.7718 67.1133 32.1951 66.69 32.7284 66.39C33.2684 66.0833 33.8718 65.93 34.5384 65.93C35.3184 65.93 36.0018 66.13 36.5884 66.53C37.1751 66.93 37.5851 67.4833 37.8184 68.19H36.2084C36.0484 67.8567 35.8218 67.6067 35.5284 67.44C35.2418 67.2733 34.9084 67.19 34.5284 67.19C34.1218 67.19 33.7584 67.2867 33.4384 67.48C33.1251 67.6667 32.8784 67.9333 32.6984 68.28C32.5251 68.6267 32.4384 69.0333 32.4384 69.5C32.4384 69.96 32.5251 70.3667 32.6984 70.72C32.8784 71.0667 33.1251 71.3367 33.4384 71.53C33.7584 71.7167 34.1218 71.81 34.5284 71.81C34.9084 71.81 35.2418 71.7267 35.5284 71.56C35.8218 71.3867 36.0484 71.1333 36.2084 70.8H37.8184C37.5851 71.5133 37.1751 72.07 36.5884 72.47C36.0084 72.8633 35.3251 73.06 34.5384 73.06C33.8718 73.06 33.2684 72.91 32.7284 72.61C32.1951 72.3033 31.7718 71.88 31.4584 71.34C31.1518 70.8 30.9984 70.1867 30.9984 69.5ZM39.6742 69.5C39.6742 68.8133 39.8276 68.2 40.1342 67.66C40.4476 67.1133 40.8709 66.69 41.4042 66.39C41.9442 66.0833 42.5476 65.93 43.2142 65.93C43.9942 65.93 44.6776 66.13 45.2642 66.53C45.8509 66.93 46.2609 67.4833 46.4942 68.19H44.8842C44.7242 67.8567 44.4976 67.6067 44.2042 67.44C43.9176 67.2733 43.5842 67.19 43.2042 67.19C42.7976 67.19 42.4342 67.2867 42.1142 67.48C41.8009 67.6667 41.5542 67.9333 41.3742 68.28C41.2009 68.6267 41.1142 69.0333 41.1142 69.5C41.1142 69.96 41.2009 70.3667 41.3742 70.72C41.5542 71.0667 41.8009 71.3367 42.1142 71.53C42.4342 71.7167 42.7976 71.81 43.2042 71.81C43.5842 71.81 43.9176 71.7267 44.2042 71.56C44.4976 71.3867 44.7242 71.1333 44.8842 70.8H46.4942C46.2609 71.5133 45.8509 72.07 45.2642 72.47C44.6842 72.8633 44.0009 73.06 43.2142 73.06C42.5476 73.06 41.9442 72.91 41.4042 72.61C40.8709 72.3033 40.4476 71.88 40.1342 71.34C39.8276 70.8 39.6742 70.1867 39.6742 69.5ZM50.09 67.15V68.9H52.44V70.01H50.09V71.86H52.74V73H48.69V66.01H52.74V67.15H50.09ZM57.4223 73.07C56.9356 73.07 56.4956 72.9867 56.1023 72.82C55.7156 72.6533 55.4089 72.4133 55.1823 72.1C54.9556 71.7867 54.8389 71.4167 54.8323 70.99H56.3323C56.3523 71.2767 56.4523 71.5033 56.6323 71.67C56.8189 71.8367 57.0723 71.92 57.3923 71.92C57.7189 71.92 57.9756 71.8433 58.1623 71.69C58.3489 71.53 58.4423 71.3233 58.4423 71.07C58.4423 70.8633 58.3789 70.6933 58.2523 70.56C58.1256 70.4267 57.9656 70.3233 57.7723 70.25C57.5856 70.17 57.3256 70.0833 56.9923 69.99C56.5389 69.8567 56.1689 69.7267 55.8823 69.6C55.6023 69.4667 55.3589 69.27 55.1523 69.01C54.9523 68.7433 54.8523 68.39 54.8523 67.95C54.8523 67.5367 54.9556 67.1767 55.1623 66.87C55.3689 66.5633 55.6589 66.33 56.0323 66.17C56.4056 66.0033 56.8323 65.92 57.3123 65.92C58.0323 65.92 58.6156 66.0967 59.0623 66.45C59.5156 66.7967 59.7656 67.2833 59.8123 67.91H58.2723C58.2589 67.67 58.1556 67.4733 57.9623 67.32C57.7756 67.16 57.5256 67.08 57.2123 67.08C56.9389 67.08 56.7189 67.15 56.5523 67.29C56.3923 67.43 56.3123 67.6333 56.3123 67.9C56.3123 68.0867 56.3723 68.2433 56.4923 68.37C56.6189 68.49 56.7723 68.59 56.9523 68.67C57.1389 68.7433 57.3989 68.83 57.7323 68.93C58.1856 69.0633 58.5556 69.1967 58.8423 69.33C59.1289 69.4633 59.3756 69.6633 59.5823 69.93C59.7889 70.1967 59.8923 70.5467 59.8923 70.98C59.8923 71.3533 59.7956 71.7 59.6023 72.02C59.4089 72.34 59.1256 72.5967 58.7523 72.79C58.3789 72.9767 57.9356 73.07 57.4223 73.07ZM64.516 73.07C64.0293 73.07 63.5893 72.9867 63.196 72.82C62.8093 72.6533 62.5027 72.4133 62.276 72.1C62.0493 71.7867 61.9327 71.4167 61.926 70.99H63.426C63.446 71.2767 63.546 71.5033 63.726 71.67C63.9127 71.8367 64.166 71.92 64.486 71.92C64.8127 71.92 65.0693 71.8433 65.256 71.69C65.4427 71.53 65.536 71.3233 65.536 71.07C65.536 70.8633 65.4727 70.6933 65.346 70.56C65.2193 70.4267 65.0593 70.3233 64.866 70.25C64.6793 70.17 64.4193 70.0833 64.086 69.99C63.6327 69.8567 63.2627 69.7267 62.976 69.6C62.696 69.4667 62.4527 69.27 62.246 69.01C62.046 68.7433 61.946 68.39 61.946 67.95C61.946 67.5367 62.0493 67.1767 62.256 66.87C62.4627 66.5633 62.7527 66.33 63.126 66.17C63.4993 66.0033 63.926 65.92 64.406 65.92C65.126 65.92 65.7093 66.0967 66.156 66.45C66.6093 66.7967 66.8593 67.2833 66.906 67.91H65.366C65.3527 67.67 65.2493 67.4733 65.056 67.32C64.8693 67.16 64.6193 67.08 64.306 67.08C64.0327 67.08 63.8127 67.15 63.646 67.29C63.486 67.43 63.406 67.6333 63.406 67.9C63.406 68.0867 63.466 68.2433 63.586 68.37C63.7127 68.49 63.866 68.59 64.046 68.67C64.2327 68.7433 64.4927 68.83 64.826 68.93C65.2793 69.0633 65.6493 69.1967 65.936 69.33C66.2227 69.4633 66.4693 69.6633 66.676 69.93C66.8827 70.1967 66.986 70.5467 66.986 70.98C66.986 71.3533 66.8893 71.7 66.696 72.02C66.5027 72.34 66.2193 72.5967 65.846 72.79C65.4727 72.9767 65.0293 73.07 64.516 73.07Z" fill="#763B29"/>
<defs>
<filter id="filter0_i_434_2312" x="9" y="7.82715" width="72.5801" height="69.5674" filterUnits="userSpaceOnUse" color-interpolation-filters="sRGB">
<feFlood flood-opacity="0" result="BackgroundImageFix"/>
<feBlend mode="normal" in="SourceGraphic" in2="BackgroundImageFix" result="shape"/>
<feColorMatrix in="SourceAlpha" type="matrix" values="0 0 0 0 0 0 0 0 0 0 0 0 0 0 0 0 0 0 127 0" result="hardAlpha"/>
<feOffset/>
<feGaussianBlur stdDeviation="2"/>
<feComposite in2="hardAlpha" operator="arithmetic" k2="-1" k3="1"/>
<feColorMatrix type="matrix" values="0 0 0 0 0 0 0 0 0 0 0 0 0 0 0 0 0 0 0.25 0"/>
<feBlend mode="normal" in2="shape" result="effect1_innerShadow_434_2312"/>
</filter>
<linearGradient id="paint0_linear_434_2312" x1="9.5" y1="15" x2="63.5" y2="68.5" gradientUnits="userSpaceOnUse">
<stop stop-color="#F8D8CB"/>
<stop offset="1" stop-color="#BA7357"/>
</linearGradient>
<linearGradient id="paint1_linear_434_2312" x1="45.2901" y1="7.82715" x2="45.2901" y2="77.3945" gradientUnits="userSpaceOnUse">
<stop stop-color="#3FBEF1"/>
<stop offset="1" stop-color="#0259FE"/>
</linearGradient>
<linearGradient id="paint2_linear_434_2312" x1="-14.3457" y1="15.1346" x2="103.679" y2="15.1346" gradientUnits="userSpaceOnUse">
<stop stop-color="white" stop-opacity="0.6"/>
<stop offset="1" stop-color="white" stop-opacity="0"/>
</linearGradient>
<linearGradient id="paint3_linear_434_2312" x1="22.8467" y1="-11.0527" x2="140.872" y2="-11.0527" gradientUnits="userSpaceOnUse">
<stop stop-color="white" stop-opacity="0.6"/>
<stop offset="1" stop-color="white" stop-opacity="0"/>
</linearGradient>
<linearGradient id="paint4_linear_434_2312" x1="6.2002" y1="67.8945" x2="84.2002" y2="67.8945" gradientUnits="userSpaceOnUse">
<stop stop-color="#D5A08A"/>
<stop offset="1" stop-color="#BA7357"/>
</linearGradient>
<linearGradient id="paint5_linear_434_2312" x1="11" y1="76.3945" x2="81" y2="76.3945" gradientUnits="userSpaceOnUse">
<stop stop-color="#D5A08A"/>
<stop offset="1" stop-color="#BA7357"/>
</linearGradient>
<linearGradient id="paint6_linear_434_2312" x1="39.4516" y1="25" x2="81.1961" y2="42.7399" gradientUnits="userSpaceOnUse">
<stop stop-color="white"/>
<stop offset="1" stop-color="#BD795E"/>
</linearGradient>
</defs>
</svg>
