<svg width="91" height="94" viewBox="0 0 91 94" fill="none" xmlns="http://www.w3.org/2000/svg">
<path d="M28.4026 7.41672C35.2615 0.675995 42.6316 -0.29998 45.6247 0.0664252C45.7187 0.077939 45.8075 0.077939 45.9016 0.0664252C48.8952 -0.300042 56.2672 0.676327 63.1272 7.42016C63.2505 7.54134 63.4037 7.63168 63.5703 7.67773L87.1506 14.1967C89.083 14.7309 90.3214 16.6132 90.0471 18.5992L81.4806 80.6322C81.2633 82.2059 80.1353 83.5018 78.6067 83.9341L46.0315 93.1466C45.8559 93.1963 45.6701 93.1969 45.4942 93.1485L11.9445 83.9214C10.4027 83.4973 9.2616 82.1958 9.04285 80.6118L0.483536 18.6313C0.207367 16.6315 1.46468 14.7393 3.41532 14.2192L27.9506 7.67667C28.1206 7.63134 28.2771 7.54005 28.4026 7.41672Z" fill="url(#paint0_linear_434_2344)"/>
<path d="M30.2854 10.1858C36.4258 4.28077 42.9737 3.50307 45.5243 3.86744C48.0749 3.50307 54.6228 4.28077 60.7632 10.1858C61.0169 10.4297 61.3274 10.6112 61.6674 10.7019L84.5638 16.8073C85.5335 17.0659 86.1615 18.0033 86.0316 18.9985L78.1156 79.6882C77.9857 80.6844 77.137 81.4296 76.1324 81.4296L47.0415 89.033C46.0468 89.293 45.0018 89.293 44.0071 89.033L14.9162 81.4296C13.9116 81.4296 13.0629 80.6844 12.933 79.6882L5.01695 18.9985C4.88714 18.0033 5.51506 17.0659 6.48484 16.8073L29.3812 10.7019C29.7212 10.6112 30.0317 10.4297 30.2854 10.1858Z" fill="white"/>
<g filter="url(#filter0_i_434_2344)">
<path d="M31.6753 13.5178C37.1659 8.26174 43.0102 7.56905 45.2901 7.89475C47.57 7.56905 53.4143 8.26174 58.9049 13.5178C59.1591 13.7612 59.4691 13.9425 59.8091 14.0332L80.0953 19.4426C81.0651 19.7012 81.693 20.6385 81.5632 21.6338L74.5172 75.6532C74.3873 76.6493 73.5386 77.3945 72.534 77.3945H18.0462C17.0416 77.3945 16.1929 76.6493 16.063 75.6532L9.01695 21.6338C8.88714 20.6385 9.51506 19.7012 10.4848 19.4426L30.771 14.0332C31.111 13.9425 31.4211 13.7612 31.6753 13.5178Z" fill="#94C0C1"/>
</g>
<g opacity="0.2">
<mask id="mask0_434_2344" style="mask-type:alpha" maskUnits="userSpaceOnUse" x="9" y="7" width="73" height="71">
<path d="M31.6753 13.5178C37.1659 8.26174 43.0102 7.56905 45.2901 7.89475C47.57 7.56905 53.4143 8.26174 58.9049 13.5178C59.1591 13.7612 59.4691 13.9425 59.8091 14.0332L80.0953 19.4426C81.0651 19.7012 81.693 20.6385 81.5632 21.6338L74.5172 75.6532C74.3873 76.6493 73.5386 77.3945 72.534 77.3945H18.0462C17.0416 77.3945 16.1929 76.6493 16.063 75.6532L9.01695 21.6338C8.88714 20.6385 9.51506 19.7012 10.4848 19.4426L30.771 14.0332C31.111 13.9425 31.4211 13.7612 31.6753 13.5178Z" fill="url(#paint1_linear_434_2344)"/>
</mask>
<g mask="url(#mask0_434_2344)">
<rect x="-14.3457" y="8.1875" width="118.025" height="13.8942" transform="rotate(39.7716 -14.3457 8.1875)" fill="url(#paint2_linear_434_2344)"/>
<rect x="22.8467" y="-24.6855" width="118.025" height="27.2657" transform="rotate(39.7716 22.8467 -24.6855)" fill="url(#paint3_linear_434_2344)"/>
</g>
</g>
<path d="M6.2002 60.8945H84.2002L82.4455 73.1774C82.3047 74.1627 81.4609 74.8945 80.4656 74.8945H9.93478C8.93948 74.8945 8.09564 74.1627 7.95489 73.1774L6.2002 60.8945Z" fill="url(#paint4_linear_434_2344)"/>
<rect x="11" y="74.8945" width="70" height="3" fill="url(#paint5_linear_434_2344)"/>
<path d="M23.1955 53V28.4688L24.1135 29.7773L18.4104 32.9023V28.4102L26.4182 24.2109H27.9025V53H23.1955ZM41.7705 53.3125C38.8538 53.3125 36.5882 52.2057 34.9736 49.9922C33.359 47.7656 32.5518 44.6276 32.5518 40.5781V36.6328C32.5518 32.5833 33.359 29.4518 34.9736 27.2383C36.5882 25.0117 38.8538 23.8984 41.7705 23.8984C44.7002 23.8984 46.9593 25.0117 48.5479 27.2383C50.1494 29.4518 50.9502 32.5833 50.9502 36.6328V40.5781C50.9502 44.6146 50.1494 47.7461 48.5479 49.9727C46.9593 52.1992 44.7002 53.3125 41.7705 53.3125ZM41.7705 49.0938C43.1898 49.0938 44.29 48.4753 45.0713 47.2383C45.8525 46.0013 46.2432 44.2565 46.2432 42.0039V35.2266C46.2432 32.9609 45.8525 31.2096 45.0713 29.9727C44.29 28.7357 43.1898 28.1172 41.7705 28.1172C40.3382 28.1172 39.2314 28.7422 38.4502 29.9922C37.6689 31.2292 37.2783 32.974 37.2783 35.2266V42.0039C37.2783 44.2435 37.6689 45.9883 38.4502 47.2383C39.2314 48.4753 40.3382 49.0938 41.7705 49.0938ZM63.5877 53.3125C60.671 53.3125 58.4054 52.2057 56.7908 49.9922C55.1762 47.7656 54.3689 44.6276 54.3689 40.5781V36.6328C54.3689 32.5833 55.1762 29.4518 56.7908 27.2383C58.4054 25.0117 60.671 23.8984 63.5877 23.8984C66.5174 23.8984 68.7765 25.0117 70.365 27.2383C71.9666 29.4518 72.7674 32.5833 72.7674 36.6328V40.5781C72.7674 44.6146 71.9666 47.7461 70.365 49.9727C68.7765 52.1992 66.5174 53.3125 63.5877 53.3125ZM63.5877 49.0938C65.007 49.0938 66.1072 48.4753 66.8885 47.2383C67.6697 46.0013 68.0604 44.2565 68.0604 42.0039V35.2266C68.0604 32.9609 67.6697 31.2096 66.8885 29.9727C66.1072 28.7357 65.007 28.1172 63.5877 28.1172C62.1554 28.1172 61.0486 28.7422 60.2674 29.9922C59.4861 31.2292 59.0955 32.974 59.0955 35.2266V42.0039C59.0955 44.2435 59.4861 45.9883 60.2674 47.2383C61.0486 48.4753 62.1554 49.0938 63.5877 49.0938Z" fill="url(#paint6_linear_434_2344)"/>
<path d="M27.4612 71.67H24.6812L24.2212 73H22.7512L25.2612 66.01H26.8912L29.4012 73H27.9212L27.4612 71.67ZM27.0812 70.55L26.0712 67.63L25.0612 70.55H27.0812ZM30.9994 69.5C30.9994 68.8133 31.1527 68.2 31.4594 67.66C31.7727 67.1133 32.1961 66.69 32.7294 66.39C33.2694 66.0833 33.8727 65.93 34.5394 65.93C35.3194 65.93 36.0027 66.13 36.5894 66.53C37.1761 66.93 37.5861 67.4833 37.8194 68.19H36.2094C36.0494 67.8567 35.8227 67.6067 35.5294 67.44C35.2427 67.2733 34.9094 67.19 34.5294 67.19C34.1227 67.19 33.7594 67.2867 33.4394 67.48C33.1261 67.6667 32.8794 67.9333 32.6994 68.28C32.5261 68.6267 32.4394 69.0333 32.4394 69.5C32.4394 69.96 32.5261 70.3667 32.6994 70.72C32.8794 71.0667 33.1261 71.3367 33.4394 71.53C33.7594 71.7167 34.1227 71.81 34.5294 71.81C34.9094 71.81 35.2427 71.7267 35.5294 71.56C35.8227 71.3867 36.0494 71.1333 36.2094 70.8H37.8194C37.5861 71.5133 37.1761 72.07 36.5894 72.47C36.0094 72.8633 35.3261 73.06 34.5394 73.06C33.8727 73.06 33.2694 72.91 32.7294 72.61C32.1961 72.3033 31.7727 71.88 31.4594 71.34C31.1527 70.8 30.9994 70.1867 30.9994 69.5ZM39.6752 69.5C39.6752 68.8133 39.8285 68.2 40.1352 67.66C40.4485 67.1133 40.8719 66.69 41.4052 66.39C41.9452 66.0833 42.5485 65.93 43.2152 65.93C43.9952 65.93 44.6785 66.13 45.2652 66.53C45.8519 66.93 46.2619 67.4833 46.4952 68.19H44.8852C44.7252 67.8567 44.4985 67.6067 44.2052 67.44C43.9185 67.2733 43.5852 67.19 43.2052 67.19C42.7985 67.19 42.4352 67.2867 42.1152 67.48C41.8019 67.6667 41.5552 67.9333 41.3752 68.28C41.2019 68.6267 41.1152 69.0333 41.1152 69.5C41.1152 69.96 41.2019 70.3667 41.3752 70.72C41.5552 71.0667 41.8019 71.3367 42.1152 71.53C42.4352 71.7167 42.7985 71.81 43.2052 71.81C43.5852 71.81 43.9185 71.7267 44.2052 71.56C44.4985 71.3867 44.7252 71.1333 44.8852 70.8H46.4952C46.2619 71.5133 45.8519 72.07 45.2652 72.47C44.6852 72.8633 44.0019 73.06 43.2152 73.06C42.5485 73.06 41.9452 72.91 41.4052 72.61C40.8719 72.3033 40.4485 71.88 40.1352 71.34C39.8285 70.8 39.6752 70.1867 39.6752 69.5ZM50.091 67.15V68.9H52.441V70.01H50.091V71.86H52.741V73H48.691V66.01H52.741V67.15H50.091ZM57.4232 73.07C56.9366 73.07 56.4966 72.9867 56.1032 72.82C55.7166 72.6533 55.4099 72.4133 55.1832 72.1C54.9566 71.7867 54.8399 71.4167 54.8332 70.99H56.3332C56.3532 71.2767 56.4532 71.5033 56.6332 71.67C56.8199 71.8367 57.0732 71.92 57.3932 71.92C57.7199 71.92 57.9766 71.8433 58.1632 71.69C58.3499 71.53 58.4432 71.3233 58.4432 71.07C58.4432 70.8633 58.3799 70.6933 58.2532 70.56C58.1266 70.4267 57.9666 70.3233 57.7732 70.25C57.5866 70.17 57.3266 70.0833 56.9932 69.99C56.5399 69.8567 56.1699 69.7267 55.8832 69.6C55.6032 69.4667 55.3599 69.27 55.1532 69.01C54.9532 68.7433 54.8532 68.39 54.8532 67.95C54.8532 67.5367 54.9566 67.1767 55.1632 66.87C55.3699 66.5633 55.6599 66.33 56.0332 66.17C56.4066 66.0033 56.8332 65.92 57.3132 65.92C58.0332 65.92 58.6166 66.0967 59.0632 66.45C59.5166 66.7967 59.7666 67.2833 59.8132 67.91H58.2732C58.2599 67.67 58.1566 67.4733 57.9632 67.32C57.7766 67.16 57.5266 67.08 57.2132 67.08C56.9399 67.08 56.7199 67.15 56.5532 67.29C56.3932 67.43 56.3132 67.6333 56.3132 67.9C56.3132 68.0867 56.3732 68.2433 56.4932 68.37C56.6199 68.49 56.7732 68.59 56.9532 68.67C57.1399 68.7433 57.3999 68.83 57.7332 68.93C58.1866 69.0633 58.5566 69.1967 58.8432 69.33C59.1299 69.4633 59.3766 69.6633 59.5832 69.93C59.7899 70.1967 59.8932 70.5467 59.8932 70.98C59.8932 71.3533 59.7966 71.7 59.6032 72.02C59.4099 72.34 59.1266 72.5967 58.7532 72.79C58.3799 72.9767 57.9366 73.07 57.4232 73.07ZM64.517 73.07C64.0303 73.07 63.5903 72.9867 63.197 72.82C62.8103 72.6533 62.5037 72.4133 62.277 72.1C62.0503 71.7867 61.9337 71.4167 61.927 70.99H63.427C63.447 71.2767 63.547 71.5033 63.727 71.67C63.9137 71.8367 64.167 71.92 64.487 71.92C64.8137 71.92 65.0703 71.8433 65.257 71.69C65.4437 71.53 65.537 71.3233 65.537 71.07C65.537 70.8633 65.4737 70.6933 65.347 70.56C65.2203 70.4267 65.0603 70.3233 64.867 70.25C64.6803 70.17 64.4203 70.0833 64.087 69.99C63.6337 69.8567 63.2637 69.7267 62.977 69.6C62.697 69.4667 62.4537 69.27 62.247 69.01C62.047 68.7433 61.947 68.39 61.947 67.95C61.947 67.5367 62.0503 67.1767 62.257 66.87C62.4637 66.5633 62.7537 66.33 63.127 66.17C63.5003 66.0033 63.927 65.92 64.407 65.92C65.127 65.92 65.7103 66.0967 66.157 66.45C66.6103 66.7967 66.8603 67.2833 66.907 67.91H65.367C65.3537 67.67 65.2503 67.4733 65.057 67.32C64.8703 67.16 64.6203 67.08 64.307 67.08C64.0337 67.08 63.8137 67.15 63.647 67.29C63.487 67.43 63.407 67.6333 63.407 67.9C63.407 68.0867 63.467 68.2433 63.587 68.37C63.7137 68.49 63.867 68.59 64.047 68.67C64.2337 68.7433 64.4937 68.83 64.827 68.93C65.2803 69.0633 65.6503 69.1967 65.937 69.33C66.2237 69.4633 66.4703 69.6633 66.677 69.93C66.8837 70.1967 66.987 70.5467 66.987 70.98C66.987 71.3533 66.8903 71.7 66.697 72.02C66.5037 72.34 66.2203 72.5967 65.847 72.79C65.4737 72.9767 65.0303 73.07 64.517 73.07Z" fill="#324A4B"/>
<defs>
<filter id="filter0_i_434_2344" x="9" y="7.82715" width="72.5801" height="69.5674" filterUnits="userSpaceOnUse" color-interpolation-filters="sRGB">
<feFlood flood-opacity="0" result="BackgroundImageFix"/>
<feBlend mode="normal" in="SourceGraphic" in2="BackgroundImageFix" result="shape"/>
<feColorMatrix in="SourceAlpha" type="matrix" values="0 0 0 0 0 0 0 0 0 0 0 0 0 0 0 0 0 0 127 0" result="hardAlpha"/>
<feOffset/>
<feGaussianBlur stdDeviation="2"/>
<feComposite in2="hardAlpha" operator="arithmetic" k2="-1" k3="1"/>
<feColorMatrix type="matrix" values="0 0 0 0 0 0 0 0 0 0 0 0 0 0 0 0 0 0 0.25 0"/>
<feBlend mode="normal" in2="shape" result="effect1_innerShadow_434_2344"/>
</filter>
<linearGradient id="paint0_linear_434_2344" x1="9.5" y1="15" x2="63.5" y2="68.5" gradientUnits="userSpaceOnUse">
<stop stop-color="#9AC3C7"/>
<stop offset="1" stop-color="#618989"/>
</linearGradient>
<linearGradient id="paint1_linear_434_2344" x1="45.2901" y1="7.82715" x2="45.2901" y2="77.3945" gradientUnits="userSpaceOnUse">
<stop stop-color="#3FBEF1"/>
<stop offset="1" stop-color="#0259FE"/>
</linearGradient>
<linearGradient id="paint2_linear_434_2344" x1="-14.3457" y1="15.1346" x2="103.679" y2="15.1346" gradientUnits="userSpaceOnUse">
<stop stop-color="white" stop-opacity="0.6"/>
<stop offset="1" stop-color="white" stop-opacity="0"/>
</linearGradient>
<linearGradient id="paint3_linear_434_2344" x1="22.8467" y1="-11.0527" x2="140.872" y2="-11.0527" gradientUnits="userSpaceOnUse">
<stop stop-color="white" stop-opacity="0.6"/>
<stop offset="1" stop-color="white" stop-opacity="0"/>
</linearGradient>
<linearGradient id="paint4_linear_434_2344" x1="6.2002" y1="67.8945" x2="84.2002" y2="67.8945" gradientUnits="userSpaceOnUse">
<stop stop-color="#82ABAD"/>
<stop offset="1" stop-color="#618989"/>
</linearGradient>
<linearGradient id="paint5_linear_434_2344" x1="11" y1="76.3945" x2="81" y2="76.3945" gradientUnits="userSpaceOnUse">
<stop stop-color="#82ABAD"/>
<stop offset="1" stop-color="#618989"/>
</linearGradient>
<linearGradient id="paint6_linear_434_2344" x1="21.7107" y1="25" x2="72.8038" y2="110.404" gradientUnits="userSpaceOnUse">
<stop stop-color="white"/>
<stop offset="1" stop-color="#D9E7E8"/>
</linearGradient>
</defs>
</svg>
