<svg width="375" height="236" viewBox="0 0 375 236" fill="none" xmlns="http://www.w3.org/2000/svg">
<rect width="375" height="235" fill="url(#paint0_linear_495_3079)"/>
<path d="M188.579 193.481C189.06 192.609 190.312 192.609 190.793 193.481L197.28 205.239C200.469 211.02 196.288 218.102 189.686 218.102Lnan nanL189.686 218.102C183.084 218.102 178.902 211.02 182.092 205.239L188.579 193.481Z" fill="#857B6F"/>
<rect x="189.112" y="211" width="1.14776" height="24.1029" fill="#857B6F"/>
<path d="M209.208 193.481C209.689 192.609 210.941 192.609 211.422 193.481L217.909 205.239C221.098 211.02 216.917 218.102 210.315 218.102Lnan nanL210.315 218.102C203.713 218.102 199.531 211.02 202.72 205.239L209.208 193.481Z" fill="#37C0B6"/>
<rect x="209.741" y="211" width="1.14776" height="24.1029" fill="#37C0B6"/>
<path d="M166.579 200.802C167.06 199.931 168.312 199.931 168.793 200.802L175.28 212.56C178.469 218.341 174.288 225.424 167.686 225.424Lnan nanL167.686 225.424C161.084 225.424 156.902 218.341 160.092 212.56L166.579 200.802Z" fill="#96C93E"/>
<rect x="167.112" y="211" width="1.14776" height="24.1029" fill="#96C93E"/>
<path d="M26.5789 193.481C27.0597 192.609 28.312 192.609 28.7927 193.481L35.2801 205.239C38.4694 211.02 34.2879 218.102 27.6858 218.102Lnan nanL27.6858 218.102C21.0837 218.102 16.9022 211.02 20.0916 205.239L26.5789 193.481Z" fill="#37C0B6"/>
<rect x="27.1123" y="211" width="1.14776" height="24.1029" fill="#37C0B6"/>
<path d="M70.5347 93C65.3347 93 63.7014 96.6667 63.5347 98.5C60.5347 98.5 55.5854 99.9422 55.0347 106C54.5347 111.5 59.5347 115.5 63.5347 115.5H82.5347C88.5347 115.5 91.7198 110.135 90.5347 105C89.0347 98.5 81.5347 97.5 78.5347 99C78.0347 97.1667 75.7347 93 70.5347 93Z" fill="white" fill-opacity="0.6"/>
<path d="M249.535 39C244.335 39 242.701 42.6667 242.535 44.5C239.535 44.5 234.585 45.9422 234.035 52C233.535 57.5 238.535 61.5 242.535 61.5H261.535C267.535 61.5 270.72 56.1355 269.535 51C268.035 44.5 260.535 43.5 257.535 45C257.035 43.1667 254.735 39 249.535 39Z" fill="white" fill-opacity="0.6"/>
<path d="M251.313 215.283L263.637 202.96L275.96 215.283V235H251.313V215.283Z" fill="#FFC670"/>
<path d="M275.959 215.281H304.302V234.998H275.959V215.281Z" fill="#FFB257"/>
<path d="M290.747 201.727H263.636L250 215.282H251.307L263.636 202.959L275.959 215.282H304.302L290.747 201.727Z" fill="#FF9F46"/>
<path d="M317.777 210.354L323.939 215.283V235H317.777V210.354Z" fill="#FFDA94"/>
<rect x="323.938" y="215.283" width="22.1815" height="19.7169" fill="#FFD37D"/>
<path d="M323.939 215.283H346.12L339.959 210.354H317.777L323.939 215.283Z" fill="#FFBF43"/>
<path d="M284.505 207.89L307.303 196.183L317.777 205.425V235H284.505V207.89Z" fill="#FFDA94"/>
<rect x="317.777" y="205.426" width="19.7169" height="4.92922" fill="#FFD37D"/>
<path fill-rule="evenodd" clip-rule="evenodd" d="M308.535 194.952H307.302L282.04 207.891H284.505L307.367 196.241L317.777 205.427H339.958L329.484 196.184L328.251 194.952H308.535Z" fill="#FFBF43"/>
<rect x="294.363" y="218.981" width="12.3231" height="16.02" fill="#FFBF43"/>
<defs>
<linearGradient id="paint0_linear_495_3079" x1="187.5" y1="10.9975" x2="187.5" y2="95.5049" gradientUnits="userSpaceOnUse">
<stop stop-color="#D0F0FE"/>
<stop offset="1" stop-color="#E5F6FE"/>
</linearGradient>
</defs>
</svg>
