<svg width="86" height="89" viewBox="0 0 86 89" fill="none" xmlns="http://www.w3.org/2000/svg">
<path d="M26.9824 7.04589C33.4985 0.642195 40.5 -0.284981 43.3435 0.0631039C43.4328 0.074042 43.5171 0.074042 43.6065 0.0631039C46.4504 -0.28504 53.4538 0.642511 59.9708 7.04916C60.0879 7.16427 60.2335 7.25009 60.3918 7.29385L82.7931 13.4868C84.6289 13.9944 85.8053 15.7825 85.5448 17.6693L77.4065 76.6006C77.2001 78.0956 76.1286 79.3267 74.6764 79.7374L43.7299 88.4893C43.5631 88.5364 43.3866 88.5371 43.2195 88.4911L11.3473 79.7253C9.88258 79.3225 8.79852 78.086 8.59071 76.5812L0.45936 17.6998C0.196998 15.7999 1.39144 14.0024 3.24455 13.5082L26.5531 7.29284C26.7146 7.24977 26.8632 7.16304 26.9824 7.04589Z" fill="url(#paint0_linear_434_2156)"/>
<path d="M28.7711 9.67661C34.6045 4.06688 40.825 3.32806 43.2481 3.67421C45.6712 3.32806 51.8916 4.06688 57.7251 9.67661C57.966 9.90833 58.2611 10.0808 58.5841 10.1669L80.3356 15.9671C81.2569 16.2128 81.8534 17.1032 81.7301 18.0487L74.2098 75.704C74.0864 76.6503 73.2801 77.3582 72.3258 77.3582L44.6895 84.5815C43.7444 84.8285 42.7518 84.8285 41.8067 84.5815L14.1704 77.3582C13.2161 77.3582 12.4098 76.6503 12.2864 75.704L4.7661 18.0487C4.64278 17.1032 5.23931 16.2128 6.1606 15.9671L27.9121 10.1669C28.2351 10.0808 28.5301 9.90833 28.7711 9.67661Z" fill="white"/>
<g filter="url(#filter0_i_434_2156)">
<path d="M30.0913 12.8417C35.3074 7.84841 40.8595 7.19035 43.0254 7.49977C45.1913 7.19035 50.7434 7.84841 55.9594 12.8417C56.2009 13.0729 56.4955 13.2451 56.8185 13.3313L76.0904 18.4702C77.0117 18.7159 77.6082 19.6064 77.4849 20.5518L70.7912 71.8703C70.6677 72.8166 69.8615 73.5246 68.9071 73.5246H17.1437C16.1893 73.5246 15.3831 72.8166 15.2596 71.8703L8.56591 20.5518C8.44258 19.6064 9.03911 18.7159 9.96041 18.4702L29.2323 13.3313C29.5553 13.2451 29.8499 13.0729 30.0913 12.8417Z" fill="#AD593F"/>
</g>
<g opacity="0.2">
<mask id="mask0_434_2156" style="mask-type:alpha" maskUnits="userSpaceOnUse" x="8" y="7" width="70" height="67">
<path d="M30.0913 12.8427C35.3074 7.84939 40.8595 7.19133 43.0254 7.50075C45.1913 7.19133 50.7434 7.84939 55.9594 12.8427C56.2009 13.0738 56.4955 13.2461 56.8185 13.3322L76.0904 18.4712C77.0117 18.7169 77.6082 19.6073 77.4849 20.5528L70.7912 71.8713C70.6677 72.8176 69.8615 73.5255 68.9071 73.5255H17.1437C16.1893 73.5255 15.3831 72.8176 15.2596 71.8713L8.56591 20.5528C8.44258 19.6073 9.03911 18.7169 9.96041 18.4712L29.2323 13.3322C29.5553 13.2461 29.8499 13.0738 30.0913 12.8427Z" fill="url(#paint1_linear_434_2156)"/>
</mask>
<g mask="url(#mask0_434_2156)">
<rect x="-13.6289" y="7.7793" width="112.124" height="13.1995" transform="rotate(39.7716 -13.6289 7.7793)" fill="url(#paint2_linear_434_2156)"/>
<rect x="21.7041" y="-23.4502" width="112.124" height="25.9024" transform="rotate(39.7716 21.7041 -23.4502)" fill="url(#paint3_linear_434_2156)"/>
</g>
</g>
<path d="M5.89062 57.8496H79.9906L78.3237 69.5183C78.1899 70.4543 77.3883 71.1496 76.4428 71.1496H9.43848C8.49295 71.1496 7.6913 70.4543 7.55758 69.5183L5.89062 57.8496Z" fill="url(#paint4_linear_434_2156)"/>
<rect x="10.4502" y="71.1494" width="66.5" height="2.85" fill="url(#paint5_linear_434_2156)"/>
<path d="M43.2275 51.0498V27.7451L44.0996 28.9883L38.6816 31.957V27.6895L46.2891 23.7002H47.6992V51.0498H43.2275Z" fill="url(#paint6_linear_434_2156)"/>
<path d="M16.9153 65.3988C17.2889 65.4685 17.5961 65.6553 17.8368 65.9593C18.0774 66.2633 18.1978 66.6116 18.1978 67.0043C18.1978 67.359 18.1091 67.6725 17.9318 67.9448C17.7608 68.2108 17.5106 68.4198 17.1813 68.5718C16.8519 68.7238 16.4624 68.7998 16.0128 68.7998H13.1533V62.1688H15.8893C16.3389 62.1688 16.7253 62.2416 17.0483 62.3873C17.3776 62.533 17.6246 62.7356 17.7893 62.9953C17.9603 63.255 18.0458 63.5495 18.0458 63.8788C18.0458 64.2651 17.9413 64.5881 17.7323 64.8478C17.5296 65.1075 17.2573 65.2911 16.9153 65.3988ZM14.4833 64.9048H15.6993C16.0159 64.9048 16.2598 64.8351 16.4308 64.6958C16.6018 64.5501 16.6873 64.3443 16.6873 64.0783C16.6873 63.8123 16.6018 63.6065 16.4308 63.4608C16.2598 63.3151 16.0159 63.2423 15.6993 63.2423H14.4833V64.9048ZM15.8228 67.7168C16.1458 67.7168 16.3959 67.6408 16.5733 67.4888C16.7569 67.3368 16.8488 67.1215 16.8488 66.8428C16.8488 66.5578 16.7538 66.3361 16.5638 66.1778C16.3738 66.0131 16.1173 65.9308 15.7943 65.9308H14.4833V67.7168H15.8228ZM23.2857 68.8663C22.6651 68.8663 22.0951 68.7206 21.5757 68.4293C21.0564 68.138 20.6447 67.7358 20.3407 67.2228C20.0367 66.7035 19.8847 66.1176 19.8847 65.4653C19.8847 64.8193 20.0367 64.2398 20.3407 63.7268C20.6447 63.2075 21.0564 62.8021 21.5757 62.5108C22.0951 62.2195 22.6651 62.0738 23.2857 62.0738C23.9127 62.0738 24.4827 62.2195 24.9957 62.5108C25.5151 62.8021 25.9236 63.2075 26.2212 63.7268C26.5252 64.2398 26.6772 64.8193 26.6772 65.4653C26.6772 66.1176 26.5252 66.7035 26.2212 67.2228C25.9236 67.7358 25.5151 68.138 24.9957 68.4293C24.4764 68.7206 23.9064 68.8663 23.2857 68.8663ZM23.2857 67.6788C23.6847 67.6788 24.0362 67.5901 24.3402 67.4128C24.6442 67.2291 24.8817 66.9695 25.0527 66.6338C25.2237 66.2981 25.3092 65.9086 25.3092 65.4653C25.3092 65.022 25.2237 64.6356 25.0527 64.3063C24.8817 63.9706 24.6442 63.7141 24.3402 63.5368C24.0362 63.3595 23.6847 63.2708 23.2857 63.2708C22.8867 63.2708 22.5321 63.3595 22.2217 63.5368C21.9177 63.7141 21.6802 63.9706 21.5092 64.3063C21.3382 64.6356 21.2527 65.022 21.2527 65.4653C21.2527 65.9086 21.3382 66.2981 21.5092 66.6338C21.6802 66.9695 21.9177 67.2291 22.2217 67.4128C22.5321 67.5901 22.8867 67.6788 23.2857 67.6788ZM31.6947 68.8663C31.0741 68.8663 30.5041 68.7206 29.9847 68.4293C29.4654 68.138 29.0537 67.7358 28.7497 67.2228C28.4457 66.7035 28.2937 66.1176 28.2937 65.4653C28.2937 64.8193 28.4457 64.2398 28.7497 63.7268C29.0537 63.2075 29.4654 62.8021 29.9847 62.5108C30.5041 62.2195 31.0741 62.0738 31.6947 62.0738C32.3217 62.0738 32.8917 62.2195 33.4047 62.5108C33.9241 62.8021 34.3326 63.2075 34.6302 63.7268C34.9342 64.2398 35.0862 64.8193 35.0862 65.4653C35.0862 66.1176 34.9342 66.7035 34.6302 67.2228C34.3326 67.7358 33.9241 68.138 33.4047 68.4293C32.8854 68.7206 32.3154 68.8663 31.6947 68.8663ZM31.6947 67.6788C32.0937 67.6788 32.4452 67.5901 32.7492 67.4128C33.0532 67.2291 33.2907 66.9695 33.4617 66.6338C33.6327 66.2981 33.7182 65.9086 33.7182 65.4653C33.7182 65.022 33.6327 64.6356 33.4617 64.3063C33.2907 63.9706 33.0532 63.7141 32.7492 63.5368C32.4452 63.3595 32.0937 63.2708 31.6947 63.2708C31.2957 63.2708 30.9411 63.3595 30.6307 63.5368C30.3267 63.7141 30.0892 63.9706 29.9182 64.3063C29.7472 64.6356 29.6617 65.022 29.6617 65.4653C29.6617 65.9086 29.7472 66.2981 29.9182 66.6338C30.0892 66.9695 30.3267 67.2291 30.6307 67.4128C30.9411 67.5901 31.2957 67.6788 31.6947 67.6788ZM40.7687 68.7998L38.3557 65.8453V68.7998H37.0257V62.1688H38.3557V65.1423L40.7687 62.1688H42.3742L39.6382 65.4558L42.4502 68.7998H40.7687ZM51.5045 62.1688V68.7998H50.1745V64.4868L48.398 68.7998H47.391L45.605 64.4868V68.7998H44.275V62.1688H45.7855L47.8945 67.0993L50.0035 62.1688H51.5045ZM57.8355 67.5363H55.1945L54.7575 68.7998H53.361L55.7455 62.1593H57.294L59.6785 68.7998H58.2725L57.8355 67.5363ZM57.4745 66.4723L56.515 63.6983L55.5555 66.4723H57.4745ZM64.9398 68.7998L63.4768 66.2158H62.8498V68.7998H61.5198V62.1688H64.0088C64.5218 62.1688 64.9588 62.2606 65.3198 62.4443C65.6808 62.6216 65.9499 62.8655 66.1273 63.1758C66.3109 63.4798 66.4028 63.8218 66.4028 64.2018C66.4028 64.6388 66.2761 65.0346 66.0228 65.3893C65.7694 65.7376 65.3926 65.9783 64.8923 66.1113L66.4788 68.7998H64.9398ZM62.8498 65.2183H63.9613C64.3223 65.2183 64.5914 65.1328 64.7688 64.9618C64.9461 64.7845 65.0348 64.5406 65.0348 64.2303C65.0348 63.9263 64.9461 63.692 64.7688 63.5273C64.5914 63.3563 64.3223 63.2708 63.9613 63.2708H62.8498V65.2183ZM72.2987 68.7998L69.8857 65.8453V68.7998H68.5557V62.1688H69.8857V65.1423L72.2987 62.1688H73.9042L71.1682 65.4558L73.9802 68.7998H72.2987Z" fill="#763B29"/>
<defs>
<filter id="filter0_i_434_2156" x="8.5498" y="7.43555" width="68.9512" height="66.0889" filterUnits="userSpaceOnUse" color-interpolation-filters="sRGB">
<feFlood flood-opacity="0" result="BackgroundImageFix"/>
<feBlend mode="normal" in="SourceGraphic" in2="BackgroundImageFix" result="shape"/>
<feColorMatrix in="SourceAlpha" type="matrix" values="0 0 0 0 0 0 0 0 0 0 0 0 0 0 0 0 0 0 127 0" result="hardAlpha"/>
<feOffset/>
<feGaussianBlur stdDeviation="1.9"/>
<feComposite in2="hardAlpha" operator="arithmetic" k2="-1" k3="1"/>
<feColorMatrix type="matrix" values="0 0 0 0 0 0 0 0 0 0 0 0 0 0 0 0 0 0 0.25 0"/>
<feBlend mode="normal" in2="shape" result="effect1_innerShadow_434_2156"/>
</filter>
<linearGradient id="paint0_linear_434_2156" x1="9.025" y1="14.25" x2="60.325" y2="65.075" gradientUnits="userSpaceOnUse">
<stop stop-color="#F8D8CB"/>
<stop offset="1" stop-color="#BA7357"/>
</linearGradient>
<linearGradient id="paint1_linear_434_2156" x1="43.0254" y1="7.43652" x2="43.0254" y2="73.5255" gradientUnits="userSpaceOnUse">
<stop stop-color="#3FBEF1"/>
<stop offset="1" stop-color="#0259FE"/>
</linearGradient>
<linearGradient id="paint2_linear_434_2156" x1="-13.6289" y1="14.3791" x2="98.4947" y2="14.3791" gradientUnits="userSpaceOnUse">
<stop stop-color="white" stop-opacity="0.6"/>
<stop offset="1" stop-color="white" stop-opacity="0"/>
</linearGradient>
<linearGradient id="paint3_linear_434_2156" x1="21.7041" y1="-10.499" x2="133.828" y2="-10.499" gradientUnits="userSpaceOnUse">
<stop stop-color="white" stop-opacity="0.6"/>
<stop offset="1" stop-color="white" stop-opacity="0"/>
</linearGradient>
<linearGradient id="paint4_linear_434_2156" x1="5.89062" y1="64.4996" x2="79.9906" y2="64.4996" gradientUnits="userSpaceOnUse">
<stop stop-color="#D5A08A"/>
<stop offset="1" stop-color="#BA7357"/>
</linearGradient>
<linearGradient id="paint5_linear_434_2156" x1="10.4502" y1="72.5744" x2="76.9502" y2="72.5744" gradientUnits="userSpaceOnUse">
<stop stop-color="#D5A08A"/>
<stop offset="1" stop-color="#BA7357"/>
</linearGradient>
<linearGradient id="paint6_linear_434_2156" x1="37.5502" y1="23.7498" x2="78.6161" y2="42.1198" gradientUnits="userSpaceOnUse">
<stop stop-color="white"/>
<stop offset="1" stop-color="#BD795E"/>
</linearGradient>
</defs>
</svg>
