<svg width="86" height="90" viewBox="0 0 86 90" fill="none" xmlns="http://www.w3.org/2000/svg">
<path d="M26.9824 7.60741C33.4985 1.20372 40.5 0.276543 43.3435 0.624627C43.4328 0.635565 43.5171 0.635565 43.6065 0.624627C46.4504 0.276484 53.4538 1.20403 59.9708 7.61068C60.0879 7.7258 60.2335 7.81162 60.3918 7.85537L82.7931 14.0484C84.6289 14.5559 85.8053 16.3441 85.5448 18.2308L77.4065 77.1621C77.2001 78.6571 76.1286 79.8882 74.6764 80.2989L43.7299 89.0508C43.5631 89.098 43.3866 89.0986 43.2195 89.0526L11.3473 80.2868C9.88258 79.884 8.79852 78.6475 8.59071 77.1427L0.45936 18.2613C0.196998 16.3614 1.39144 14.5639 3.24455 14.0697L26.5531 7.85436C26.7146 7.81129 26.8632 7.72457 26.9824 7.60741Z" fill="url(#paint0_linear_434_2204)"/>
<path d="M28.7711 10.2381C34.6045 4.6284 40.825 3.88958 43.2481 4.23574C45.6712 3.88958 51.8916 4.6284 57.7251 10.2381C57.966 10.4699 58.2611 10.6423 58.5841 10.7285L80.3356 16.5286C81.2569 16.7743 81.8534 17.6648 81.7301 18.6102L74.2098 76.2655C74.0864 77.2118 73.2801 77.9198 72.3258 77.9198L44.6895 85.143C43.7444 85.39 42.7518 85.39 41.8067 85.143L14.1704 77.9198C13.2161 77.9198 12.4098 77.2118 12.2864 76.2655L4.7661 18.6102C4.64278 17.6648 5.23931 16.7743 6.1606 16.5286L27.9121 10.7285C28.2351 10.6423 28.5301 10.4699 28.7711 10.2381Z" fill="white"/>
<g filter="url(#filter0_i_434_2204)">
<path d="M30.0913 13.4032C35.3074 8.40993 40.8595 7.75188 43.0254 8.06129C45.1913 7.75188 50.7434 8.40993 55.9594 13.4032C56.2009 13.6344 56.4955 13.8067 56.8185 13.8928L76.0904 19.0318C77.0117 19.2774 77.6082 20.1679 77.4849 21.1134L70.7912 72.4318C70.6677 73.3782 69.8615 74.0861 68.9071 74.0861H17.1437C16.1893 74.0861 15.3831 73.3782 15.2596 72.4318L8.56591 21.1134C8.44258 20.1679 9.03911 19.2774 9.96041 19.0318L29.2323 13.8928C29.5553 13.8067 29.8499 13.6344 30.0913 13.4032Z" fill="#785618"/>
</g>
<g opacity="0.2">
<mask id="mask0_434_2204" style="mask-type:alpha" maskUnits="userSpaceOnUse" x="8" y="7" width="70" height="68">
<path d="M30.0913 13.4042C35.3074 8.41091 40.8595 7.75285 43.0254 8.06227C45.1913 7.75285 50.7434 8.41091 55.9594 13.4042C56.2009 13.6354 56.4955 13.8076 56.8185 13.8938L76.0904 19.0327C77.0117 19.2784 77.6082 20.1689 77.4849 21.1143L70.7912 72.4328C70.6677 73.3791 69.8615 74.0871 68.9071 74.0871H17.1437C16.1893 74.0871 15.3831 73.3791 15.2596 72.4328L8.56591 21.1143C8.44258 20.1689 9.03911 19.2784 9.96041 19.0327L29.2323 13.8938C29.5553 13.8076 29.8499 13.6354 30.0913 13.4042Z" fill="url(#paint1_linear_434_2204)"/>
</mask>
<g mask="url(#mask0_434_2204)">
<rect x="-13.6289" y="8.34082" width="112.124" height="13.1995" transform="rotate(39.7716 -13.6289 8.34082)" fill="url(#paint2_linear_434_2204)"/>
<rect x="21.7041" y="-22.8887" width="112.124" height="25.9024" transform="rotate(39.7716 21.7041 -22.8887)" fill="url(#paint3_linear_434_2204)"/>
</g>
</g>
<path d="M5.89062 58.4111H79.9906L78.3237 70.0798C78.1899 71.0159 77.3883 71.7111 76.4428 71.7111H9.43848C8.49295 71.7111 7.6913 71.0159 7.55758 70.0798L5.89062 58.4111Z" fill="url(#paint4_linear_434_2204)"/>
<rect x="10.4502" y="71.7109" width="66.5" height="2.85" fill="url(#paint5_linear_434_2204)"/>
<path d="M32.8058 51.9082C31.878 51.9082 30.9441 51.7783 30.004 51.5186C29.0763 51.2588 28.198 50.8877 27.3693 50.4053C26.5405 49.9229 25.823 49.3477 25.2169 48.6797L27.0353 44.4492C27.4558 45.0924 27.9816 45.6738 28.6124 46.1934C29.2433 46.7129 29.9112 47.1273 30.6163 47.4365C31.3338 47.7458 32.0327 47.9004 32.713 47.9004C33.5294 47.9004 34.2345 47.6901 34.8282 47.2695C35.4344 46.849 35.8982 46.2738 36.2198 45.5439C36.5415 44.8141 36.7023 43.9854 36.7023 43.0576C36.7023 41.6104 36.3312 40.4538 35.589 39.5879C34.8592 38.7096 33.9376 38.2705 32.8243 38.2705C32.1935 38.2581 31.5935 38.3695 31.0245 38.6045C30.4679 38.8271 29.9793 39.124 29.5587 39.4951L26.3302 38.623V24.2617H39.4484V28.2695H30.6905V36.9346L29.3917 36.0811C29.8247 35.6234 30.4184 35.2646 31.173 35.0049C31.9399 34.7327 32.7687 34.5967 33.6593 34.5967C35.1066 34.5967 36.3868 34.9616 37.5001 35.6914C38.6134 36.4089 39.4855 37.4046 40.1163 38.6787C40.7472 39.9528 41.0626 41.4186 41.0626 43.0762C41.0626 44.8327 40.7039 46.3727 39.9864 47.6963C39.2814 49.0199 38.3103 50.0527 37.0734 50.7949C35.8364 51.5371 34.4139 51.9082 32.8058 51.9082ZM52.6415 51.9082C49.8706 51.9082 47.7183 50.8568 46.1845 48.7539C44.6506 46.6387 43.8837 43.6576 43.8837 39.8105V36.0625C43.8837 32.2155 44.6506 29.2406 46.1845 27.1377C47.7183 25.0225 49.8706 23.9648 52.6415 23.9648C55.4247 23.9648 57.5708 25.0225 59.08 27.1377C60.6014 29.2406 61.3622 32.2155 61.3622 36.0625V39.8105C61.3622 43.6452 60.6014 46.6201 59.08 48.7354C57.5708 50.8506 55.4247 51.9082 52.6415 51.9082ZM52.6415 47.9004C53.9898 47.9004 55.035 47.3128 55.7772 46.1377C56.5194 44.9626 56.8905 43.305 56.8905 41.165V34.7266C56.8905 32.5742 56.5194 30.9105 55.7772 29.7354C55.035 28.5602 53.9898 27.9727 52.6415 27.9727C51.2808 27.9727 50.2294 28.5664 49.4872 29.7539C48.745 30.929 48.3739 32.5866 48.3739 34.7266V41.165C48.3739 43.2926 48.745 44.9502 49.4872 46.1377C50.2294 47.3128 51.2808 47.9004 52.6415 47.9004Z" fill="url(#paint6_linear_434_2204)"/>
<path d="M16.9153 65.9603C17.2889 66.03 17.5961 66.2168 17.8368 66.5208C18.0774 66.8248 18.1978 67.1732 18.1978 67.5658C18.1978 67.9205 18.1091 68.234 17.9318 68.5063C17.7608 68.7723 17.5106 68.9813 17.1813 69.1333C16.8519 69.2853 16.4624 69.3613 16.0128 69.3613H13.1533V62.7303H15.8893C16.3389 62.7303 16.7253 62.8032 17.0483 62.9488C17.3776 63.0945 17.6246 63.2972 17.7893 63.5568C17.9603 63.8165 18.0458 64.111 18.0458 64.4403C18.0458 64.8267 17.9413 65.1497 17.7323 65.4093C17.5296 65.669 17.2573 65.8527 16.9153 65.9603ZM14.4833 65.4663H15.6993C16.0159 65.4663 16.2598 65.3967 16.4308 65.2573C16.6018 65.1117 16.6873 64.9058 16.6873 64.6398C16.6873 64.3738 16.6018 64.168 16.4308 64.0223C16.2598 63.8767 16.0159 63.8038 15.6993 63.8038H14.4833V65.4663ZM15.8228 68.2783C16.1458 68.2783 16.3959 68.2023 16.5733 68.0503C16.7569 67.8983 16.8488 67.683 16.8488 67.4043C16.8488 67.1193 16.7538 66.8977 16.5638 66.7393C16.3738 66.5747 16.1173 66.4923 15.7943 66.4923H14.4833V68.2783H15.8228ZM23.2857 69.4278C22.6651 69.4278 22.0951 69.2822 21.5757 68.9908C21.0564 68.6995 20.6447 68.2973 20.3407 67.7843C20.0367 67.265 19.8847 66.6792 19.8847 66.0268C19.8847 65.3808 20.0367 64.8013 20.3407 64.2883C20.6447 63.769 21.0564 63.3637 21.5757 63.0723C22.0951 62.781 22.6651 62.6353 23.2857 62.6353C23.9127 62.6353 24.4827 62.781 24.9957 63.0723C25.5151 63.3637 25.9236 63.769 26.2212 64.2883C26.5252 64.8013 26.6772 65.3808 26.6772 66.0268C26.6772 66.6792 26.5252 67.265 26.2212 67.7843C25.9236 68.2973 25.5151 68.6995 24.9957 68.9908C24.4764 69.2822 23.9064 69.4278 23.2857 69.4278ZM23.2857 68.2403C23.6847 68.2403 24.0362 68.1517 24.3402 67.9743C24.6442 67.7907 24.8817 67.531 25.0527 67.1953C25.2237 66.8597 25.3092 66.4702 25.3092 66.0268C25.3092 65.5835 25.2237 65.1972 25.0527 64.8678C24.8817 64.5322 24.6442 64.2757 24.3402 64.0983C24.0362 63.921 23.6847 63.8323 23.2857 63.8323C22.8867 63.8323 22.5321 63.921 22.2217 64.0983C21.9177 64.2757 21.6802 64.5322 21.5092 64.8678C21.3382 65.1972 21.2527 65.5835 21.2527 66.0268C21.2527 66.4702 21.3382 66.8597 21.5092 67.1953C21.6802 67.531 21.9177 67.7907 22.2217 67.9743C22.5321 68.1517 22.8867 68.2403 23.2857 68.2403ZM31.6947 69.4278C31.0741 69.4278 30.5041 69.2822 29.9847 68.9908C29.4654 68.6995 29.0537 68.2973 28.7497 67.7843C28.4457 67.265 28.2937 66.6792 28.2937 66.0268C28.2937 65.3808 28.4457 64.8013 28.7497 64.2883C29.0537 63.769 29.4654 63.3637 29.9847 63.0723C30.5041 62.781 31.0741 62.6353 31.6947 62.6353C32.3217 62.6353 32.8917 62.781 33.4047 63.0723C33.9241 63.3637 34.3326 63.769 34.6302 64.2883C34.9342 64.8013 35.0862 65.3808 35.0862 66.0268C35.0862 66.6792 34.9342 67.265 34.6302 67.7843C34.3326 68.2973 33.9241 68.6995 33.4047 68.9908C32.8854 69.2822 32.3154 69.4278 31.6947 69.4278ZM31.6947 68.2403C32.0937 68.2403 32.4452 68.1517 32.7492 67.9743C33.0532 67.7907 33.2907 67.531 33.4617 67.1953C33.6327 66.8597 33.7182 66.4702 33.7182 66.0268C33.7182 65.5835 33.6327 65.1972 33.4617 64.8678C33.2907 64.5322 33.0532 64.2757 32.7492 64.0983C32.4452 63.921 32.0937 63.8323 31.6947 63.8323C31.2957 63.8323 30.9411 63.921 30.6307 64.0983C30.3267 64.2757 30.0892 64.5322 29.9182 64.8678C29.7472 65.1972 29.6617 65.5835 29.6617 66.0268C29.6617 66.4702 29.7472 66.8597 29.9182 67.1953C30.0892 67.531 30.3267 67.7907 30.6307 67.9743C30.9411 68.1517 31.2957 68.2403 31.6947 68.2403ZM40.7687 69.3613L38.3557 66.4068V69.3613H37.0257V62.7303H38.3557V65.7038L40.7687 62.7303H42.3742L39.6382 66.0173L42.4502 69.3613H40.7687ZM51.5045 62.7303V69.3613H50.1745V65.0483L48.398 69.3613H47.391L45.605 65.0483V69.3613H44.275V62.7303H45.7855L47.8945 67.6608L50.0035 62.7303H51.5045ZM57.8355 68.0978H55.1945L54.7575 69.3613H53.361L55.7455 62.7208H57.294L59.6785 69.3613H58.2725L57.8355 68.0978ZM57.4745 67.0338L56.515 64.2598L55.5555 67.0338H57.4745ZM64.9398 69.3613L63.4768 66.7773H62.8498V69.3613H61.5198V62.7303H64.0088C64.5218 62.7303 64.9588 62.8222 65.3198 63.0058C65.6808 63.1832 65.9499 63.427 66.1273 63.7373C66.3109 64.0413 66.4028 64.3833 66.4028 64.7633C66.4028 65.2003 66.2761 65.5962 66.0228 65.9508C65.7694 66.2992 65.3926 66.5398 64.8923 66.6728L66.4788 69.3613H64.9398ZM62.8498 65.7798H63.9613C64.3223 65.7798 64.5914 65.6943 64.7688 65.5233C64.9461 65.346 65.0348 65.1022 65.0348 64.7918C65.0348 64.4878 64.9461 64.2535 64.7688 64.0888C64.5914 63.9178 64.3223 63.8323 63.9613 63.8323H62.8498V65.7798ZM72.2987 69.3613L69.8857 66.4068V69.3613H68.5557V62.7303H69.8857V65.7038L72.2987 62.7303H73.9042L71.1682 66.0173L73.9802 69.3613H72.2987Z" fill="#423113"/>
<defs>
<filter id="filter0_i_434_2204" x="8.5498" y="7.99707" width="68.9512" height="66.0889" filterUnits="userSpaceOnUse" color-interpolation-filters="sRGB">
<feFlood flood-opacity="0" result="BackgroundImageFix"/>
<feBlend mode="normal" in="SourceGraphic" in2="BackgroundImageFix" result="shape"/>
<feColorMatrix in="SourceAlpha" type="matrix" values="0 0 0 0 0 0 0 0 0 0 0 0 0 0 0 0 0 0 127 0" result="hardAlpha"/>
<feOffset/>
<feGaussianBlur stdDeviation="1.9"/>
<feComposite in2="hardAlpha" operator="arithmetic" k2="-1" k3="1"/>
<feColorMatrix type="matrix" values="0 0 0 0 0 0 0 0 0 0 0 0 0 0 0 0 0 0 0.25 0"/>
<feBlend mode="normal" in2="shape" result="effect1_innerShadow_434_2204"/>
</filter>
<linearGradient id="paint0_linear_434_2204" x1="9.025" y1="14.8115" x2="60.325" y2="65.6365" gradientUnits="userSpaceOnUse">
<stop stop-color="#EFEFBB"/>
<stop offset="1" stop-color="#A07C32"/>
</linearGradient>
<linearGradient id="paint1_linear_434_2204" x1="43.0254" y1="7.99805" x2="43.0254" y2="74.0871" gradientUnits="userSpaceOnUse">
<stop stop-color="#3FBEF1"/>
<stop offset="1" stop-color="#0259FE"/>
</linearGradient>
<linearGradient id="paint2_linear_434_2204" x1="-13.6289" y1="14.9406" x2="98.4947" y2="14.9406" gradientUnits="userSpaceOnUse">
<stop stop-color="white" stop-opacity="0.6"/>
<stop offset="1" stop-color="white" stop-opacity="0"/>
</linearGradient>
<linearGradient id="paint3_linear_434_2204" x1="21.7041" y1="-9.93745" x2="133.828" y2="-9.93745" gradientUnits="userSpaceOnUse">
<stop stop-color="white" stop-opacity="0.6"/>
<stop offset="1" stop-color="white" stop-opacity="0"/>
</linearGradient>
<linearGradient id="paint4_linear_434_2204" x1="5.89062" y1="65.0611" x2="79.9906" y2="65.0611" gradientUnits="userSpaceOnUse">
<stop stop-color="#C3AE6E"/>
<stop offset="1" stop-color="#A07C32"/>
</linearGradient>
<linearGradient id="paint5_linear_434_2204" x1="10.4502" y1="73.1359" x2="76.9502" y2="73.1359" gradientUnits="userSpaceOnUse">
<stop stop-color="#C3AE6E"/>
<stop offset="1" stop-color="#A07C32"/>
</linearGradient>
<linearGradient id="paint6_linear_434_2204" x1="26.7666" y1="24.3113" x2="80.7574" y2="90.3263" gradientUnits="userSpaceOnUse">
<stop stop-color="white"/>
<stop offset="1" stop-color="#A19E80"/>
</linearGradient>
</defs>
</svg>
