<svg width="86" height="90" viewBox="0 0 86 90" fill="none" xmlns="http://www.w3.org/2000/svg">
<path d="M26.9824 7.60741C33.4985 1.20372 40.5 0.276543 43.3435 0.624627C43.4328 0.635565 43.5171 0.635565 43.6065 0.624627C46.4504 0.276484 53.4538 1.20403 59.9708 7.61068C60.0879 7.7258 60.2335 7.81162 60.3918 7.85537L82.7931 14.0484C84.6289 14.5559 85.8053 16.3441 85.5448 18.2308L77.4065 77.1621C77.2001 78.6571 76.1286 79.8882 74.6764 80.2989L43.7299 89.0508C43.5631 89.098 43.3866 89.0986 43.2195 89.0526L11.3473 80.2868C9.88258 79.884 8.79852 78.6475 8.59071 77.1427L0.45936 18.2613C0.196998 16.3614 1.39144 14.5639 3.24455 14.0697L26.5531 7.85436C26.7146 7.81129 26.8632 7.72457 26.9824 7.60741Z" fill="url(#paint0_linear_434_2188)"/>
<path d="M28.7711 10.2381C34.6045 4.6284 40.825 3.88958 43.2481 4.23574C45.6712 3.88958 51.8916 4.6284 57.7251 10.2381C57.966 10.4699 58.2611 10.6423 58.5841 10.7285L80.3356 16.5286C81.2569 16.7743 81.8534 17.6648 81.7301 18.6102L74.2098 76.2655C74.0864 77.2118 73.2801 77.9198 72.3258 77.9198L44.6895 85.143C43.7444 85.39 42.7518 85.39 41.8067 85.143L14.1704 77.9198C13.2161 77.9198 12.4098 77.2118 12.2864 76.2655L4.7661 18.6102C4.64278 17.6648 5.23931 16.7743 6.1606 16.5286L27.9121 10.7285C28.2351 10.6423 28.5301 10.4699 28.7711 10.2381Z" fill="white"/>
<g filter="url(#filter0_i_434_2188)">
<path d="M30.0913 13.4032C35.3074 8.40993 40.8595 7.75188 43.0254 8.06129C45.1913 7.75188 50.7434 8.40993 55.9594 13.4032C56.2009 13.6344 56.4955 13.8067 56.8185 13.8928L76.0904 19.0318C77.0117 19.2774 77.6082 20.1679 77.4849 21.1134L70.7912 72.4318C70.6677 73.3782 69.8615 74.0861 68.9071 74.0861H17.1437C16.1893 74.0861 15.3831 73.3782 15.2596 72.4318L8.56591 21.1134C8.44258 20.1679 9.03911 19.2774 9.96041 19.0318L29.2323 13.8928C29.5553 13.8067 29.8499 13.6344 30.0913 13.4032Z" fill="#94C0C1"/>
</g>
<g opacity="0.2">
<mask id="mask0_434_2188" style="mask-type:alpha" maskUnits="userSpaceOnUse" x="8" y="7" width="70" height="68">
<path d="M30.0913 13.4042C35.3074 8.41091 40.8595 7.75285 43.0254 8.06227C45.1913 7.75285 50.7434 8.41091 55.9594 13.4042C56.2009 13.6354 56.4955 13.8076 56.8185 13.8938L76.0904 19.0327C77.0117 19.2784 77.6082 20.1689 77.4849 21.1143L70.7912 72.4328C70.6677 73.3791 69.8615 74.0871 68.9071 74.0871H17.1437C16.1893 74.0871 15.3831 73.3791 15.2596 72.4328L8.56591 21.1143C8.44258 20.1689 9.03911 19.2784 9.96041 19.0327L29.2323 13.8938C29.5553 13.8076 29.8499 13.6354 30.0913 13.4042Z" fill="url(#paint1_linear_434_2188)"/>
</mask>
<g mask="url(#mask0_434_2188)">
<rect x="-13.6289" y="8.34082" width="112.124" height="13.1995" transform="rotate(39.7716 -13.6289 8.34082)" fill="url(#paint2_linear_434_2188)"/>
<rect x="21.7041" y="-22.8887" width="112.124" height="25.9024" transform="rotate(39.7716 21.7041 -22.8887)" fill="url(#paint3_linear_434_2188)"/>
</g>
</g>
<path d="M5.89062 58.4111H79.9906L78.3237 70.0798C78.1899 71.0159 77.3883 71.7111 76.4428 71.7111H9.43848C8.49295 71.7111 7.6913 71.0159 7.55758 70.0798L5.89062 58.4111Z" fill="url(#paint4_linear_434_2188)"/>
<rect x="10.4502" y="71.7109" width="66.5" height="2.85" fill="url(#paint5_linear_434_2188)"/>
<path d="M22.01 51.6113V28.3066L22.8821 29.5498L17.4641 32.5186V28.251L25.0715 24.2617H26.4817V51.6113H22.01ZM39.6562 51.9082C36.8854 51.9082 34.7331 50.8568 33.1992 48.7539C31.6654 46.6387 30.8984 43.6576 30.8984 39.8105V36.0625C30.8984 32.2155 31.6654 29.2406 33.1992 27.1377C34.7331 25.0225 36.8854 23.9648 39.6562 23.9648C42.4395 23.9648 44.5856 25.0225 46.0947 27.1377C47.6162 29.2406 48.377 32.2155 48.377 36.0625V39.8105C48.377 43.6452 47.6162 46.6201 46.0947 48.7354C44.5856 50.8506 42.4395 51.9082 39.6562 51.9082ZM39.6562 47.9004C41.0046 47.9004 42.0498 47.3128 42.792 46.1377C43.5342 44.9626 43.9053 43.305 43.9053 41.165V34.7266C43.9053 32.5742 43.5342 30.9105 42.792 29.7354C42.0498 28.5602 41.0046 27.9727 39.6562 27.9727C38.2956 27.9727 37.2441 28.5664 36.502 29.7539C35.7598 30.929 35.3887 32.5866 35.3887 34.7266V41.165C35.3887 43.2926 35.7598 44.9502 36.502 46.1377C37.2441 47.3128 38.2956 47.9004 39.6562 47.9004ZM60.3826 51.9082C57.6117 51.9082 55.4594 50.8568 53.9255 48.7539C52.3917 46.6387 51.6248 43.6576 51.6248 39.8105V36.0625C51.6248 32.2155 52.3917 29.2406 53.9255 27.1377C55.4594 25.0225 57.6117 23.9648 60.3826 23.9648C63.1658 23.9648 65.3119 25.0225 66.8211 27.1377C68.3425 29.2406 69.1033 32.2155 69.1033 36.0625V39.8105C69.1033 43.6452 68.3425 46.6201 66.8211 48.7354C65.3119 50.8506 63.1658 51.9082 60.3826 51.9082ZM60.3826 47.9004C61.7309 47.9004 62.7761 47.3128 63.5183 46.1377C64.2605 44.9626 64.6316 43.305 64.6316 41.165V34.7266C64.6316 32.5742 64.2605 30.9105 63.5183 29.7354C62.7761 28.5602 61.7309 27.9727 60.3826 27.9727C59.0219 27.9727 57.9705 28.5664 57.2283 29.7539C56.4861 30.929 56.115 32.5866 56.115 34.7266V41.165C56.115 43.2926 56.4861 44.9502 57.2283 46.1377C57.9705 47.3128 59.0219 47.9004 60.3826 47.9004Z" fill="url(#paint6_linear_434_2188)"/>
<path d="M16.9162 65.9603C17.2899 66.03 17.5971 66.2168 17.8377 66.5208C18.0784 66.8248 18.1987 67.1732 18.1987 67.5658C18.1987 67.9205 18.1101 68.234 17.9327 68.5063C17.7617 68.7723 17.5116 68.9813 17.1822 69.1333C16.8529 69.2853 16.4634 69.3613 16.0137 69.3613H13.1542V62.7303H15.8902C16.3399 62.7303 16.7262 62.8032 17.0492 62.9488C17.3786 63.0945 17.6256 63.2972 17.7902 63.5568C17.9612 63.8165 18.0467 64.111 18.0467 64.4403C18.0467 64.8267 17.9422 65.1497 17.7332 65.4093C17.5306 65.669 17.2582 65.8527 16.9162 65.9603ZM14.4842 65.4663H15.7002C16.0169 65.4663 16.2607 65.3967 16.4317 65.2573C16.6027 65.1117 16.6882 64.9058 16.6882 64.6398C16.6882 64.3738 16.6027 64.168 16.4317 64.0223C16.2607 63.8767 16.0169 63.8038 15.7002 63.8038H14.4842V65.4663ZM15.8237 68.2783C16.1467 68.2783 16.3969 68.2023 16.5742 68.0503C16.7579 67.8983 16.8497 67.683 16.8497 67.4043C16.8497 67.1193 16.7547 66.8977 16.5647 66.7393C16.3747 66.5747 16.1182 66.4923 15.7952 66.4923H14.4842V68.2783H15.8237ZM23.2867 69.4278C22.6661 69.4278 22.0961 69.2822 21.5767 68.9908C21.0574 68.6995 20.6457 68.2973 20.3417 67.7843C20.0377 67.265 19.8857 66.6792 19.8857 66.0268C19.8857 65.3808 20.0377 64.8013 20.3417 64.2883C20.6457 63.769 21.0574 63.3637 21.5767 63.0723C22.0961 62.781 22.6661 62.6353 23.2867 62.6353C23.9137 62.6353 24.4837 62.781 24.9967 63.0723C25.5161 63.3637 25.9246 63.769 26.2222 64.2883C26.5262 64.8013 26.6782 65.3808 26.6782 66.0268C26.6782 66.6792 26.5262 67.265 26.2222 67.7843C25.9246 68.2973 25.5161 68.6995 24.9967 68.9908C24.4774 69.2822 23.9074 69.4278 23.2867 69.4278ZM23.2867 68.2403C23.6857 68.2403 24.0372 68.1517 24.3412 67.9743C24.6452 67.7907 24.8827 67.531 25.0537 67.1953C25.2247 66.8597 25.3102 66.4702 25.3102 66.0268C25.3102 65.5835 25.2247 65.1972 25.0537 64.8678C24.8827 64.5322 24.6452 64.2757 24.3412 64.0983C24.0372 63.921 23.6857 63.8323 23.2867 63.8323C22.8877 63.8323 22.5331 63.921 22.2227 64.0983C21.9187 64.2757 21.6812 64.5322 21.5102 64.8678C21.3392 65.1972 21.2537 65.5835 21.2537 66.0268C21.2537 66.4702 21.3392 66.8597 21.5102 67.1953C21.6812 67.531 21.9187 67.7907 22.2227 67.9743C22.5331 68.1517 22.8877 68.2403 23.2867 68.2403ZM31.6957 69.4278C31.075 69.4278 30.505 69.2822 29.9857 68.9908C29.4664 68.6995 29.0547 68.2973 28.7507 67.7843C28.4467 67.265 28.2947 66.6792 28.2947 66.0268C28.2947 65.3808 28.4467 64.8013 28.7507 64.2883C29.0547 63.769 29.4664 63.3637 29.9857 63.0723C30.505 62.781 31.075 62.6353 31.6957 62.6353C32.3227 62.6353 32.8927 62.781 33.4057 63.0723C33.925 63.3637 34.3335 63.769 34.6312 64.2883C34.9352 64.8013 35.0872 65.3808 35.0872 66.0268C35.0872 66.6792 34.9352 67.265 34.6312 67.7843C34.3335 68.2973 33.925 68.6995 33.4057 68.9908C32.8864 69.2822 32.3164 69.4278 31.6957 69.4278ZM31.6957 68.2403C32.0947 68.2403 32.4462 68.1517 32.7502 67.9743C33.0542 67.7907 33.2917 67.531 33.4627 67.1953C33.6337 66.8597 33.7192 66.4702 33.7192 66.0268C33.7192 65.5835 33.6337 65.1972 33.4627 64.8678C33.2917 64.5322 33.0542 64.2757 32.7502 64.0983C32.4462 63.921 32.0947 63.8323 31.6957 63.8323C31.2967 63.8323 30.942 63.921 30.6317 64.0983C30.3277 64.2757 30.0902 64.5322 29.9192 64.8678C29.7482 65.1972 29.6627 65.5835 29.6627 66.0268C29.6627 66.4702 29.7482 66.8597 29.9192 67.1953C30.0902 67.531 30.3277 67.7907 30.6317 67.9743C30.942 68.1517 31.2967 68.2403 31.6957 68.2403ZM40.7697 69.3613L38.3567 66.4068V69.3613H37.0267V62.7303H38.3567V65.7038L40.7697 62.7303H42.3752L39.6392 66.0173L42.4512 69.3613H40.7697ZM51.5055 62.7303V69.3613H50.1755V65.0483L48.399 69.3613H47.392L45.606 65.0483V69.3613H44.276V62.7303H45.7865L47.8955 67.6608L50.0045 62.7303H51.5055ZM57.8364 68.0978H55.1954L54.7584 69.3613H53.3619L55.7464 62.7208H57.2949L59.6794 69.3613H58.2734L57.8364 68.0978ZM57.4754 67.0338L56.5159 64.2598L55.5564 67.0338H57.4754ZM64.9407 69.3613L63.4777 66.7773H62.8507V69.3613H61.5207V62.7303H64.0097C64.5227 62.7303 64.9597 62.8222 65.3207 63.0058C65.6817 63.1832 65.9509 63.427 66.1282 63.7373C66.3119 64.0413 66.4037 64.3833 66.4037 64.7633C66.4037 65.2003 66.2771 65.5962 66.0237 65.9508C65.7704 66.2992 65.3936 66.5398 64.8932 66.6728L66.4797 69.3613H64.9407ZM62.8507 65.7798H63.9622C64.3232 65.7798 64.5924 65.6943 64.7697 65.5233C64.9471 65.346 65.0357 65.1022 65.0357 64.7918C65.0357 64.4878 64.9471 64.2535 64.7697 64.0888C64.5924 63.9178 64.3232 63.8323 63.9622 63.8323H62.8507V65.7798ZM72.2997 69.3613L69.8867 66.4068V69.3613H68.5567V62.7303H69.8867V65.7038L72.2997 62.7303H73.9052L71.1692 66.0173L73.9812 69.3613H72.2997Z" fill="#324A4B"/>
<defs>
<filter id="filter0_i_434_2188" x="8.5498" y="7.99707" width="68.9512" height="66.0889" filterUnits="userSpaceOnUse" color-interpolation-filters="sRGB">
<feFlood flood-opacity="0" result="BackgroundImageFix"/>
<feBlend mode="normal" in="SourceGraphic" in2="BackgroundImageFix" result="shape"/>
<feColorMatrix in="SourceAlpha" type="matrix" values="0 0 0 0 0 0 0 0 0 0 0 0 0 0 0 0 0 0 127 0" result="hardAlpha"/>
<feOffset/>
<feGaussianBlur stdDeviation="1.9"/>
<feComposite in2="hardAlpha" operator="arithmetic" k2="-1" k3="1"/>
<feColorMatrix type="matrix" values="0 0 0 0 0 0 0 0 0 0 0 0 0 0 0 0 0 0 0.25 0"/>
<feBlend mode="normal" in2="shape" result="effect1_innerShadow_434_2188"/>
</filter>
<linearGradient id="paint0_linear_434_2188" x1="9.025" y1="14.8115" x2="60.325" y2="65.6365" gradientUnits="userSpaceOnUse">
<stop stop-color="#9AC3C7"/>
<stop offset="1" stop-color="#618989"/>
</linearGradient>
<linearGradient id="paint1_linear_434_2188" x1="43.0254" y1="7.99805" x2="43.0254" y2="74.0871" gradientUnits="userSpaceOnUse">
<stop stop-color="#3FBEF1"/>
<stop offset="1" stop-color="#0259FE"/>
</linearGradient>
<linearGradient id="paint2_linear_434_2188" x1="-13.6289" y1="14.9406" x2="98.4947" y2="14.9406" gradientUnits="userSpaceOnUse">
<stop stop-color="white" stop-opacity="0.6"/>
<stop offset="1" stop-color="white" stop-opacity="0"/>
</linearGradient>
<linearGradient id="paint3_linear_434_2188" x1="21.7041" y1="-9.93745" x2="133.828" y2="-9.93745" gradientUnits="userSpaceOnUse">
<stop stop-color="white" stop-opacity="0.6"/>
<stop offset="1" stop-color="white" stop-opacity="0"/>
</linearGradient>
<linearGradient id="paint4_linear_434_2188" x1="5.89062" y1="65.0611" x2="79.9906" y2="65.0611" gradientUnits="userSpaceOnUse">
<stop stop-color="#82ABAD"/>
<stop offset="1" stop-color="#618989"/>
</linearGradient>
<linearGradient id="paint5_linear_434_2188" x1="10.4502" y1="73.1359" x2="76.9502" y2="73.1359" gradientUnits="userSpaceOnUse">
<stop stop-color="#82ABAD"/>
<stop offset="1" stop-color="#618989"/>
</linearGradient>
<linearGradient id="paint6_linear_434_2188" x1="20.6196" y1="24.3113" x2="69.1785" y2="105.407" gradientUnits="userSpaceOnUse">
<stop stop-color="white"/>
<stop offset="1" stop-color="#D9E7E8"/>
</linearGradient>
</defs>
</svg>
