<svg width="108" height="108" viewBox="0 0 108 108" fill="none" xmlns="http://www.w3.org/2000/svg">
<path d="M27.8584 43.1586L35.9245 34.1963L43.9906 43.1586V98.725H27.8584V43.1586Z" fill="#F6F7FB"/>
<path d="M43.9904 43.1592H53.849L45.7829 34.1969H35.9243L43.9904 43.1592Z" fill="#4373F4"/>
<rect x="43.9907" y="43.1592" width="9.85855" height="55.5664" fill="#DFE2EE"/>
<rect x="30.5474" y="46.7432" width="2.6887" height="4.48116" fill="#9FC6FF"/>
<rect x="30.5474" y="53.4658" width="2.6887" height="4.48116" fill="#9FC6FF"/>
<rect x="30.5474" y="60.1865" width="2.6887" height="4.48116" fill="#9FC6FF"/>
<rect x="35.9243" y="46.7432" width="2.6887" height="4.48116" fill="#9FC6FF"/>
<rect x="35.9243" y="53.4658" width="2.6887" height="4.48116" fill="#9FC6FF"/>
<rect x="35.9243" y="60.1865" width="2.6887" height="4.48116" fill="#9FC6FF"/>
<path d="M65.4997 18.9619H75.3582L67.2921 9.9996H57.4336L65.4997 18.9619Z" fill="#4373F4"/>
<path d="M65.5 18.9619H75.3585V98.7265H65.5V18.9619Z" fill="#DFE2EE"/>
<path d="M49.3677 18.9623L57.4338 10L65.4998 18.9623V98.7269H49.3677V18.9623Z" fill="#F6F7FB"/>
<rect x="52.0562" y="43.6084" width="2.6887" height="4.48116" fill="#9FC6FF"/>
<rect x="52.0566" y="23.4434" width="2.6887" height="4.48116" fill="#9FC6FF"/>
<rect x="52.0566" y="50.3301" width="2.6887" height="4.48116" fill="#9FC6FF"/>
<rect x="52.0566" y="30.1641" width="2.6887" height="4.48116" fill="#9FC6FF"/>
<rect x="52.0562" y="57.0518" width="2.6887" height="4.48116" fill="#9FC6FF"/>
<rect x="52.0562" y="36.8877" width="2.6887" height="4.48116" fill="#9FC6FF"/>
<rect x="57.4336" y="43.6084" width="2.6887" height="4.48116" fill="#9FC6FF"/>
<rect x="57.4336" y="23.4434" width="2.6887" height="4.48116" fill="#9FC6FF"/>
<rect x="57.4336" y="50.3301" width="2.6887" height="4.48116" fill="#9FC6FF"/>
<rect x="57.4336" y="30.1641" width="2.6887" height="4.48116" fill="#9FC6FF"/>
<rect x="57.4336" y="57.0518" width="2.6887" height="4.48116" fill="#9FC6FF"/>
<rect x="57.4336" y="36.8877" width="2.6887" height="4.48116" fill="#9FC6FF"/>
<rect x="87.0098" y="33.3018" width="9.85855" height="65.4249" fill="#DFE2EE"/>
<path d="M87.0094 33.3018H96.868L88.8019 24.3394H78.9434L87.0094 33.3018Z" fill="#4373F4"/>
<path d="M70.8774 33.3012L78.9435 24.3389L87.0096 33.3012V98.7261H70.8774V33.3012Z" fill="#F6F7FB"/>
<rect x="73.5659" y="43.6084" width="2.6887" height="4.48116" fill="#9FC6FF"/>
<rect x="73.5659" y="50.3291" width="2.6887" height="4.48116" fill="#9FC6FF"/>
<rect x="73.5659" y="57.0508" width="2.6887" height="4.48116" fill="#9FC6FF"/>
<rect x="73.5664" y="36.8867" width="2.6887" height="4.48116" fill="#9FC6FF"/>
<rect x="78.9434" y="43.6084" width="2.6887" height="4.48116" fill="#9FC6FF"/>
<rect x="78.9434" y="50.3291" width="2.6887" height="4.48116" fill="#9FC6FF"/>
<rect x="78.9434" y="57.0508" width="2.6887" height="4.48116" fill="#9FC6FF"/>
<rect x="78.9434" y="36.8867" width="2.6887" height="4.48116" fill="#9FC6FF"/>
<path d="M11.7852 84.3881L20.7475 75.4258L29.7098 84.3881V98.7278H11.7852V84.3881Z" fill="#FFC670"/>
<path d="M29.7095 84.3867H50.3228V98.7264H29.7095V84.3867Z" fill="#FFB257"/>
<path d="M40.4645 74.5293H20.7474L10.8301 84.3878H11.7807L20.7474 75.4255L29.7097 84.3878H50.3231L40.4645 74.5293Z" fill="#FF9F46"/>
<path d="M60.1226 80.8037L64.6037 84.3886V98.7283H60.1226V80.8037Z" fill="#FFDA94"/>
<rect x="64.604" y="84.3887" width="16.1322" height="14.3397" fill="#FFD37D"/>
<path d="M64.6037 84.3887H80.7359L76.2547 80.8037H60.1226L64.6037 84.3887Z" fill="#FFBF43"/>
<path d="M35.9238 79.0122L52.5041 70.498L60.1221 77.2198V98.7293H35.9238V79.0122Z" fill="#FFDA94"/>
<rect x="60.1221" y="77.2217" width="14.3397" height="3.58493" fill="#FFD37D"/>
<path fill-rule="evenodd" clip-rule="evenodd" d="M53.4005 69.6045H52.5041L34.1313 79.0149H35.9238L52.5512 70.5419L60.1221 77.2225H76.2542L68.6363 70.5007L67.74 69.6045H53.4005Z" fill="#FFBF43"/>
<rect x="43.0933" y="87.0791" width="8.96232" height="11.651" fill="#FFBF43"/>
</svg>
