<svg width="108" height="108" viewBox="0 0 108 108" fill="none" xmlns="http://www.w3.org/2000/svg">
<path d="M19.9551 84.7856L28.9174 75.8232L37.8797 84.7856V99.1253H19.9551V84.7856Z" fill="#FFC670"/>
<path d="M37.8794 84.7842H58.4927V99.1239H37.8794V84.7842Z" fill="#FFB257"/>
<path d="M48.6344 74.9268H28.9174L19 84.7853H19.9506L28.9174 75.823L37.8797 84.7853H58.493L48.6344 74.9268Z" fill="#FF9F46"/>
<path d="M68.2925 81.2002L72.7736 84.7851V99.1248H68.2925V81.2002Z" fill="#FFDA94"/>
<rect x="72.7739" y="84.7852" width="16.1322" height="14.3397" fill="#FFD37D"/>
<path d="M72.7736 84.7852H88.9058L84.4247 81.2002H68.2925L72.7736 84.7852Z" fill="#FFBF43"/>
<path d="M44.0942 79.4087L60.6745 70.8945L68.2925 77.6163V99.1258H44.0942V79.4087Z" fill="#FFDA94"/>
<rect x="68.2925" y="77.6172" width="14.3397" height="3.58493" fill="#FFD37D"/>
<path fill-rule="evenodd" clip-rule="evenodd" d="M61.571 70H60.6745L42.3018 79.4104H44.0942L60.7216 70.9374L68.2925 77.618H84.4246L76.8067 70.8962L75.9104 70H61.571Z" fill="#FFBF43"/>
<rect x="51.2642" y="87.4756" width="8.96232" height="11.651" fill="#FFBF43"/>
</svg>
