<svg width="108" height="108" viewBox="0 0 108 108" fill="none" xmlns="http://www.w3.org/2000/svg">
<path d="M19.2495 43.1596L27.3156 34.1973L35.3817 43.1596V98.7259H19.2495V43.1596Z" fill="#F6F7FB"/>
<path d="M35.3815 43.1602H45.2401L37.174 34.1978H27.3154L35.3815 43.1602Z" fill="#4373F4"/>
<rect x="35.3818" y="43.1602" width="9.85855" height="55.5664" fill="#DFE2EE"/>
<rect x="21.9385" y="46.7441" width="2.6887" height="4.48116" fill="#9FC6FF"/>
<rect x="21.9385" y="53.4668" width="2.6887" height="4.48116" fill="#9FC6FF"/>
<rect x="21.9385" y="60.1875" width="2.6887" height="4.48116" fill="#9FC6FF"/>
<rect x="27.3154" y="46.7441" width="2.6887" height="4.48116" fill="#9FC6FF"/>
<rect x="27.3154" y="53.4668" width="2.6887" height="4.48116" fill="#9FC6FF"/>
<rect x="27.3154" y="60.1875" width="2.6887" height="4.48116" fill="#9FC6FF"/>
<path d="M56.8908 18.9619H66.7493L58.6833 9.9996H48.8247L56.8908 18.9619Z" fill="#4373F4"/>
<path d="M56.8911 18.9619H66.7497V98.7265H56.8911V18.9619Z" fill="#DFE2EE"/>
<path d="M40.7588 18.9623L48.8249 10L56.891 18.9623V98.7269H40.7588V18.9623Z" fill="#F6F7FB"/>
<rect x="43.4478" y="43.6084" width="2.6887" height="4.48116" fill="#9FC6FF"/>
<rect x="43.4473" y="23.4434" width="2.6887" height="4.48116" fill="#9FC6FF"/>
<rect x="43.4473" y="50.3301" width="2.6887" height="4.48116" fill="#9FC6FF"/>
<rect x="43.4473" y="30.1641" width="2.6887" height="4.48116" fill="#9FC6FF"/>
<rect x="43.4478" y="57.0518" width="2.6887" height="4.48116" fill="#9FC6FF"/>
<rect x="43.4478" y="36.8877" width="2.6887" height="4.48116" fill="#9FC6FF"/>
<rect x="48.8247" y="43.6084" width="2.6887" height="4.48116" fill="#9FC6FF"/>
<rect x="48.8247" y="23.4434" width="2.6887" height="4.48116" fill="#9FC6FF"/>
<rect x="48.8247" y="50.3301" width="2.6887" height="4.48116" fill="#9FC6FF"/>
<rect x="48.8247" y="30.1641" width="2.6887" height="4.48116" fill="#9FC6FF"/>
<rect x="48.8247" y="57.0518" width="2.6887" height="4.48116" fill="#9FC6FF"/>
<rect x="48.8247" y="36.8877" width="2.6887" height="4.48116" fill="#9FC6FF"/>
<rect x="78.4009" y="33.3037" width="9.85855" height="65.4249" fill="#DFE2EE"/>
<path d="M78.4006 33.3037H88.2591L80.193 24.3414H70.3345L78.4006 33.3037Z" fill="#4373F4"/>
<path d="M62.2686 33.3031L70.3346 24.3408L78.4007 33.3031V98.7281H62.2686V33.3031Z" fill="#F6F7FB"/>
<rect x="64.957" y="43.6104" width="2.6887" height="4.48116" fill="#9FC6FF"/>
<rect x="64.957" y="50.3311" width="2.6887" height="4.48116" fill="#9FC6FF"/>
<rect x="64.957" y="57.0527" width="2.6887" height="4.48116" fill="#9FC6FF"/>
<rect x="64.957" y="36.8887" width="2.6887" height="4.48116" fill="#9FC6FF"/>
<rect x="70.3345" y="43.6104" width="2.6887" height="4.48116" fill="#9FC6FF"/>
<rect x="70.3345" y="50.3311" width="2.6887" height="4.48116" fill="#9FC6FF"/>
<rect x="70.3345" y="57.0527" width="2.6887" height="4.48116" fill="#9FC6FF"/>
<rect x="70.3345" y="36.8887" width="2.6887" height="4.48116" fill="#9FC6FF"/>
</svg>
