<svg width="86" height="90" viewBox="0 0 86 90" fill="none" xmlns="http://www.w3.org/2000/svg">
<path d="M26.9824 7.60741C33.4985 1.20372 40.5 0.276543 43.3435 0.624627C43.4328 0.635565 43.5171 0.635565 43.6065 0.624627C46.4504 0.276484 53.4538 1.20403 59.9708 7.61068C60.0879 7.7258 60.2335 7.81162 60.3918 7.85537L82.7931 14.0484C84.6289 14.5559 85.8053 16.3441 85.5448 18.2308L77.4065 77.1621C77.2001 78.6571 76.1286 79.8882 74.6764 80.2989L43.7299 89.0508C43.5631 89.098 43.3866 89.0986 43.2195 89.0526L11.3473 80.2868C9.88258 79.884 8.79852 78.6475 8.59071 77.1427L0.45936 18.2613C0.196998 16.3614 1.39144 14.5639 3.24455 14.0697L26.5531 7.85436C26.7146 7.81129 26.8632 7.72457 26.9824 7.60741Z" fill="url(#paint0_linear_434_2220)"/>
<path d="M28.7711 10.2381C34.6045 4.6284 40.825 3.88958 43.2481 4.23574C45.6712 3.88958 51.8916 4.6284 57.7251 10.2381C57.966 10.4699 58.2611 10.6423 58.5841 10.7285L80.3356 16.5286C81.2569 16.7743 81.8534 17.6648 81.7301 18.6102L74.2098 76.2655C74.0864 77.2118 73.2801 77.9198 72.3258 77.9198L44.6895 85.143C43.7444 85.39 42.7518 85.39 41.8067 85.143L14.1704 77.9198C13.2161 77.9198 12.4098 77.2118 12.2864 76.2655L4.7661 18.6102C4.64278 17.6648 5.23931 16.7743 6.1606 16.5286L27.9121 10.7285C28.2351 10.6423 28.5301 10.4699 28.7711 10.2381Z" fill="white"/>
<g filter="url(#filter0_i_434_2220)">
<path d="M30.0913 13.4032C35.3074 8.40993 40.8595 7.75188 43.0254 8.06129C45.1913 7.75188 50.7434 8.40993 55.9594 13.4032C56.2009 13.6344 56.4955 13.8067 56.8185 13.8928L76.0904 19.0318C77.0117 19.2774 77.6082 20.1679 77.4849 21.1134L70.7912 72.4318C70.6677 73.3782 69.8615 74.0861 68.9071 74.0861H17.1437C16.1893 74.0861 15.3831 73.3782 15.2596 72.4318L8.56591 21.1134C8.44258 20.1679 9.03911 19.2774 9.96041 19.0318L29.2323 13.8928C29.5553 13.8067 29.8499 13.6344 30.0913 13.4032Z" fill="#AD593F"/>
</g>
<g opacity="0.2">
<mask id="mask0_434_2220" style="mask-type:alpha" maskUnits="userSpaceOnUse" x="8" y="7" width="70" height="68">
<path d="M30.0913 13.4042C35.3074 8.41091 40.8595 7.75285 43.0254 8.06227C45.1913 7.75285 50.7434 8.41091 55.9594 13.4042C56.2009 13.6354 56.4955 13.8076 56.8185 13.8938L76.0904 19.0327C77.0117 19.2784 77.6082 20.1689 77.4849 21.1143L70.7912 72.4328C70.6677 73.3791 69.8615 74.0871 68.9071 74.0871H17.1437C16.1893 74.0871 15.3831 73.3791 15.2596 72.4328L8.56591 21.1143C8.44258 20.1689 9.03911 19.2784 9.96041 19.0327L29.2323 13.8938C29.5553 13.8076 29.8499 13.6354 30.0913 13.4042Z" fill="url(#paint1_linear_434_2220)"/>
</mask>
<g mask="url(#mask0_434_2220)">
<rect x="-13.6289" y="8.34082" width="112.124" height="13.1995" transform="rotate(39.7716 -13.6289 8.34082)" fill="url(#paint2_linear_434_2220)"/>
<rect x="21.7041" y="-22.8887" width="112.124" height="25.9024" transform="rotate(39.7716 21.7041 -22.8887)" fill="url(#paint3_linear_434_2220)"/>
</g>
</g>
<path d="M5.89062 58.4111H79.9906L78.3237 70.0798C78.1899 71.0159 77.3883 71.7111 76.4428 71.7111H9.43848C8.49295 71.7111 7.6913 71.0159 7.55758 70.0798L5.89062 58.4111Z" fill="url(#paint4_linear_434_2220)"/>
<rect x="10.4502" y="71.7109" width="66.5" height="2.85" fill="url(#paint5_linear_434_2220)"/>
<path d="M43.2275 51.6113V28.3066L44.0996 29.5498L38.6816 32.5186V28.251L46.2891 24.2617H47.6992V51.6113H43.2275Z" fill="url(#paint6_linear_434_2220)"/>
<path d="M22.0669 69.4278C21.6046 69.4278 21.1866 69.3487 20.8129 69.1903C20.4456 69.032 20.1543 68.804 19.9389 68.5063C19.7236 68.2087 19.6128 67.8572 19.6064 67.4518H21.0314C21.0504 67.7242 21.1454 67.9395 21.3164 68.0978C21.4938 68.2562 21.7344 68.3353 22.0384 68.3353C22.3488 68.3353 22.5926 68.2625 22.7699 68.1168C22.9473 67.9648 23.0359 67.7685 23.0359 67.5278C23.0359 67.3315 22.9758 67.17 22.8554 67.0433C22.7351 66.9167 22.5831 66.8185 22.3994 66.7488C22.2221 66.6728 21.9751 66.5905 21.6584 66.5018C21.2278 66.3752 20.8763 66.2517 20.6039 66.1313C20.3379 66.0047 20.1068 65.8178 19.9104 65.5708C19.7204 65.3175 19.6254 64.9818 19.6254 64.5638C19.6254 64.1712 19.7236 63.8292 19.9199 63.5378C20.1163 63.2465 20.3918 63.0248 20.7464 62.8728C21.1011 62.7145 21.5064 62.6353 21.9624 62.6353C22.6464 62.6353 23.2006 62.8032 23.6249 63.1388C24.0556 63.4682 24.2931 63.9305 24.3374 64.5258H22.8744C22.8618 64.2978 22.7636 64.111 22.5799 63.9653C22.4026 63.8133 22.1651 63.7373 21.8674 63.7373C21.6078 63.7373 21.3988 63.8038 21.2404 63.9368C21.0884 64.0698 21.0124 64.263 21.0124 64.5163C21.0124 64.6937 21.0694 64.8425 21.1834 64.9628C21.3038 65.0768 21.4494 65.1718 21.6204 65.2478C21.7978 65.3175 22.0448 65.3998 22.3614 65.4948C22.7921 65.6215 23.1436 65.7482 23.4159 65.8748C23.6883 66.0015 23.9226 66.1915 24.1189 66.4448C24.3153 66.6982 24.4134 67.0307 24.4134 67.4423C24.4134 67.797 24.3216 68.1263 24.1379 68.4303C23.9543 68.7343 23.6851 68.9782 23.3304 69.1618C22.9758 69.3392 22.5546 69.4278 22.0669 69.4278ZM30.5825 68.0978H27.9415L27.5045 69.3613H26.108L28.4925 62.7208H30.041L32.4255 69.3613H31.0195L30.5825 68.0978ZM30.2215 67.0338L29.262 64.2598L28.3025 67.0338H30.2215ZM40.2233 62.7303L37.7913 69.3613H36.1763L33.7443 62.7303H35.1693L36.9933 68.0028L38.8078 62.7303H40.2233ZM43.3007 62.7303V69.3613H41.9707V62.7303H43.3007ZM51.2362 69.3613H49.9062L46.8947 64.8108V69.3613H45.5647V62.7208H46.8947L49.9062 67.2808V62.7208H51.2362V69.3613ZM58.1176 64.7253C57.9656 64.4467 57.7566 64.2345 57.4906 64.0888C57.2246 63.9432 56.9142 63.8703 56.5596 63.8703C56.1669 63.8703 55.8186 63.959 55.5146 64.1363C55.2106 64.3137 54.9731 64.567 54.8021 64.8963C54.6311 65.2257 54.5456 65.6057 54.5456 66.0363C54.5456 66.4797 54.6311 66.866 54.8021 67.1953C54.9794 67.5247 55.2232 67.778 55.5336 67.9553C55.8439 68.1327 56.2049 68.2213 56.6166 68.2213C57.1232 68.2213 57.5381 68.0883 57.8611 67.8223C58.1841 67.55 58.3962 67.1732 58.4976 66.6918H56.2176V65.6753H59.8086V66.8343C59.7199 67.2967 59.5299 67.7242 59.2386 68.1168C58.9472 68.5095 58.5704 68.8262 58.1081 69.0668C57.6521 69.3012 57.1391 69.4183 56.5691 69.4183C55.9294 69.4183 55.3499 69.2758 54.8306 68.9908C54.3176 68.6995 53.9122 68.2973 53.6146 67.7843C53.3232 67.2713 53.1776 66.6887 53.1776 66.0363C53.1776 65.384 53.3232 64.8013 53.6146 64.2883C53.9122 63.769 54.3176 63.3668 54.8306 63.0818C55.3499 62.7905 55.9262 62.6448 56.5596 62.6448C57.3069 62.6448 57.9561 62.8285 58.5071 63.1958C59.0581 63.5568 59.4381 64.0667 59.6471 64.7253H58.1176ZM64.0321 69.4278C63.5697 69.4278 63.1517 69.3487 62.7781 69.1903C62.4107 69.032 62.1194 68.804 61.9041 68.5063C61.6887 68.2087 61.5779 67.8572 61.5716 67.4518H62.9966C63.0156 67.7242 63.1106 67.9395 63.2816 68.0978C63.4589 68.2562 63.6996 68.3353 64.0036 68.3353C64.3139 68.3353 64.5577 68.2625 64.7351 68.1168C64.9124 67.9648 65.0011 67.7685 65.0011 67.5278C65.0011 67.3315 64.9409 67.17 64.8206 67.0433C64.7002 66.9167 64.5482 66.8185 64.3646 66.7488C64.1872 66.6728 63.9402 66.5905 63.6236 66.5018C63.1929 66.3752 62.8414 66.2517 62.5691 66.1313C62.3031 66.0047 62.0719 65.8178 61.8756 65.5708C61.6856 65.3175 61.5906 64.9818 61.5906 64.5638C61.5906 64.1712 61.6887 63.8292 61.8851 63.5378C62.0814 63.2465 62.3569 63.0248 62.7116 62.8728C63.0662 62.7145 63.4716 62.6353 63.9276 62.6353C64.6116 62.6353 65.1657 62.8032 65.5901 63.1388C66.0207 63.4682 66.2582 63.9305 66.3026 64.5258H64.8396C64.8269 64.2978 64.7287 64.111 64.5451 63.9653C64.3677 63.8133 64.1302 63.7373 63.8326 63.7373C63.5729 63.7373 63.3639 63.8038 63.2056 63.9368C63.0536 64.0698 62.9776 64.263 62.9776 64.5163C62.9776 64.6937 63.0346 64.8425 63.1486 64.9628C63.2689 65.0768 63.4146 65.1718 63.5856 65.2478C63.7629 65.3175 64.0099 65.3998 64.3266 65.4948C64.7572 65.6215 65.1087 65.7482 65.3811 65.8748C65.6534 66.0015 65.8877 66.1915 66.0841 66.4448C66.2804 66.6982 66.3786 67.0307 66.3786 67.4423C66.3786 67.797 66.2867 68.1263 66.1031 68.4303C65.9194 68.7343 65.6502 68.9782 65.2956 69.1618C64.9409 69.3392 64.5197 69.4278 64.0321 69.4278Z" fill="#763B29"/>
<defs>
<filter id="filter0_i_434_2220" x="8.5498" y="7.99707" width="68.9512" height="66.0889" filterUnits="userSpaceOnUse" color-interpolation-filters="sRGB">
<feFlood flood-opacity="0" result="BackgroundImageFix"/>
<feBlend mode="normal" in="SourceGraphic" in2="BackgroundImageFix" result="shape"/>
<feColorMatrix in="SourceAlpha" type="matrix" values="0 0 0 0 0 0 0 0 0 0 0 0 0 0 0 0 0 0 127 0" result="hardAlpha"/>
<feOffset/>
<feGaussianBlur stdDeviation="1.9"/>
<feComposite in2="hardAlpha" operator="arithmetic" k2="-1" k3="1"/>
<feColorMatrix type="matrix" values="0 0 0 0 0 0 0 0 0 0 0 0 0 0 0 0 0 0 0.25 0"/>
<feBlend mode="normal" in2="shape" result="effect1_innerShadow_434_2220"/>
</filter>
<linearGradient id="paint0_linear_434_2220" x1="9.025" y1="14.8115" x2="60.325" y2="65.6365" gradientUnits="userSpaceOnUse">
<stop stop-color="#F8D8CB"/>
<stop offset="1" stop-color="#BA7357"/>
</linearGradient>
<linearGradient id="paint1_linear_434_2220" x1="43.0254" y1="7.99805" x2="43.0254" y2="74.0871" gradientUnits="userSpaceOnUse">
<stop stop-color="#3FBEF1"/>
<stop offset="1" stop-color="#0259FE"/>
</linearGradient>
<linearGradient id="paint2_linear_434_2220" x1="-13.6289" y1="14.9406" x2="98.4947" y2="14.9406" gradientUnits="userSpaceOnUse">
<stop stop-color="white" stop-opacity="0.6"/>
<stop offset="1" stop-color="white" stop-opacity="0"/>
</linearGradient>
<linearGradient id="paint3_linear_434_2220" x1="21.7041" y1="-9.93745" x2="133.828" y2="-9.93745" gradientUnits="userSpaceOnUse">
<stop stop-color="white" stop-opacity="0.6"/>
<stop offset="1" stop-color="white" stop-opacity="0"/>
</linearGradient>
<linearGradient id="paint4_linear_434_2220" x1="5.89062" y1="65.0611" x2="79.9906" y2="65.0611" gradientUnits="userSpaceOnUse">
<stop stop-color="#D5A08A"/>
<stop offset="1" stop-color="#BA7357"/>
</linearGradient>
<linearGradient id="paint5_linear_434_2220" x1="10.4502" y1="73.1359" x2="76.9502" y2="73.1359" gradientUnits="userSpaceOnUse">
<stop stop-color="#D5A08A"/>
<stop offset="1" stop-color="#BA7357"/>
</linearGradient>
<linearGradient id="paint6_linear_434_2220" x1="37.5502" y1="24.3113" x2="78.6161" y2="42.6814" gradientUnits="userSpaceOnUse">
<stop stop-color="white"/>
<stop offset="1" stop-color="#BD795E"/>
</linearGradient>
</defs>
</svg>
