<svg width="86" height="89" viewBox="0 0 86 89" fill="none" xmlns="http://www.w3.org/2000/svg">
<path d="M26.9824 7.16893C33.4985 0.765242 40.5 -0.161934 43.3435 0.186151C43.4328 0.197089 43.5171 0.197089 43.6065 0.186151C46.4504 -0.161993 53.4538 0.765557 59.9708 7.1722C60.0879 7.28732 60.2335 7.37314 60.3918 7.41689L82.7931 13.6099C84.6289 14.1174 85.8053 15.9056 85.5448 17.7923L77.4065 76.7237C77.2001 78.2186 76.1286 79.4497 74.6764 79.8604L43.7299 88.6123C43.5631 88.6595 43.3866 88.6601 43.2195 88.6142L11.3473 79.8484C9.88258 79.4455 8.79852 78.2091 8.59071 76.7042L0.45936 17.8228C0.196998 15.923 1.39144 14.1254 3.24455 13.6313L26.5531 7.41588C26.7146 7.37282 26.8632 7.28609 26.9824 7.16893Z" fill="url(#paint0_linear_434_2268)"/>
<path d="M28.7711 9.79966C34.6045 4.18993 40.825 3.45111 43.2481 3.79726C45.6712 3.45111 51.8916 4.18993 57.7251 9.79966C57.966 10.0314 58.2611 10.2038 58.5841 10.29L80.3356 16.0902C81.2569 16.3358 81.8534 17.2263 81.7301 18.1718L74.2098 75.827C74.0864 76.7734 73.2801 77.4813 72.3258 77.4813L44.6895 84.7046C43.7444 84.9516 42.7518 84.9516 41.8067 84.7046L14.1704 77.4813C13.2161 77.4813 12.4098 76.7734 12.2864 75.827L4.7661 18.1718C4.64278 17.2263 5.23931 16.3358 6.1606 16.0902L27.9121 10.29C28.2351 10.2038 28.5301 10.0314 28.7711 9.79966Z" fill="white"/>
<g filter="url(#filter0_i_434_2268)">
<path d="M30.0913 12.9647C35.3074 7.97146 40.8595 7.3134 43.0254 7.62282C45.1913 7.3134 50.7434 7.97146 55.9594 12.9647C56.2009 13.1959 56.4955 13.3682 56.8185 13.4543L76.0904 18.5933C77.0117 18.839 77.6082 19.7294 77.4849 20.6749L70.7912 71.9933C70.6677 72.9397 69.8615 73.6476 68.9071 73.6476H17.1437C16.1893 73.6476 15.3831 72.9397 15.2596 71.9933L8.56591 20.6749C8.44258 19.7294 9.03911 18.839 9.96041 18.5933L29.2323 13.4543C29.5553 13.3682 29.8499 13.1959 30.0913 12.9647Z" fill="#785618"/>
</g>
<g opacity="0.2">
<mask id="mask0_434_2268" style="mask-type:alpha" maskUnits="userSpaceOnUse" x="8" y="7" width="70" height="67">
<path d="M30.0913 12.9657C35.3074 7.97243 40.8595 7.31438 43.0254 7.62379C45.1913 7.31438 50.7434 7.97243 55.9594 12.9657C56.2009 13.1969 56.4955 13.3692 56.8185 13.4553L76.0904 18.5943C77.0117 18.8399 77.6082 19.7304 77.4849 20.6759L70.7912 71.9943C70.6677 72.9407 69.8615 73.6486 68.9071 73.6486H17.1437C16.1893 73.6486 15.3831 72.9407 15.2596 71.9943L8.56591 20.6759C8.44258 19.7304 9.03911 18.8399 9.96041 18.5943L29.2323 13.4553C29.5553 13.3692 29.8499 13.1969 30.0913 12.9657Z" fill="url(#paint1_linear_434_2268)"/>
</mask>
<g mask="url(#mask0_434_2268)">
<rect x="-13.6289" y="7.90234" width="112.124" height="13.1995" transform="rotate(39.7716 -13.6289 7.90234)" fill="url(#paint2_linear_434_2268)"/>
<rect x="21.7041" y="-23.3271" width="112.124" height="25.9024" transform="rotate(39.7716 21.7041 -23.3271)" fill="url(#paint3_linear_434_2268)"/>
</g>
</g>
<path d="M5.89062 57.9727H79.9906L78.3237 69.6414C78.1899 70.5774 77.3883 71.2727 76.4428 71.2727H9.43848C8.49295 71.2727 7.6913 70.5774 7.55758 69.6414L5.89062 57.9727Z" fill="url(#paint4_linear_434_2268)"/>
<rect x="10.4502" y="71.2725" width="66.5" height="2.85" fill="url(#paint5_linear_434_2268)"/>
<path d="M32.8058 51.4697C31.878 51.4697 30.9441 51.3398 30.004 51.0801C29.0763 50.8203 28.198 50.4492 27.3693 49.9668C26.5405 49.4844 25.823 48.9092 25.2169 48.2412L27.0353 44.0107C27.4558 44.654 27.9816 45.2354 28.6124 45.7549C29.2433 46.2744 29.9112 46.6888 30.6163 46.998C31.3338 47.3073 32.0327 47.4619 32.713 47.4619C33.5294 47.4619 34.2345 47.2516 34.8282 46.8311C35.4344 46.4105 35.8982 45.8353 36.2198 45.1055C36.5415 44.3757 36.7023 43.5469 36.7023 42.6191C36.7023 41.1719 36.3312 40.0153 35.589 39.1494C34.8592 38.2712 33.9376 37.832 32.8243 37.832C32.1935 37.8197 31.5935 37.931 31.0245 38.166C30.4679 38.3887 29.9793 38.6855 29.5587 39.0566L26.3302 38.1846V23.8232H39.4484V27.8311H30.6905V36.4961L29.3917 35.6426C29.8247 35.1849 30.4184 34.8262 31.173 34.5664C31.9399 34.2943 32.7687 34.1582 33.6593 34.1582C35.1066 34.1582 36.3868 34.5231 37.5001 35.2529C38.6134 35.9704 39.4855 36.9661 40.1163 38.2402C40.7472 39.5143 41.0626 40.9801 41.0626 42.6377C41.0626 44.3942 40.7039 45.9342 39.9864 47.2578C39.2814 48.5814 38.3103 49.6143 37.0734 50.3564C35.8364 51.0986 34.4139 51.4697 32.8058 51.4697ZM52.6415 51.4697C49.8706 51.4697 47.7183 50.4183 46.1845 48.3154C44.6506 46.2002 43.8837 43.2191 43.8837 39.3721V35.624C43.8837 31.777 44.6506 28.8021 46.1845 26.6992C47.7183 24.584 49.8706 23.5264 52.6415 23.5264C55.4247 23.5264 57.5708 24.584 59.08 26.6992C60.6014 28.8021 61.3622 31.777 61.3622 35.624V39.3721C61.3622 43.2067 60.6014 46.1816 59.08 48.2969C57.5708 50.4121 55.4247 51.4697 52.6415 51.4697ZM52.6415 47.4619C53.9898 47.4619 55.035 46.8743 55.7772 45.6992C56.5194 44.5241 56.8905 42.8665 56.8905 40.7266V34.2881C56.8905 32.1357 56.5194 30.472 55.7772 29.2969C55.035 28.1217 53.9898 27.5342 52.6415 27.5342C51.2808 27.5342 50.2294 28.1279 49.4872 29.3154C48.745 30.4906 48.3739 32.1481 48.3739 34.2881V40.7266C48.3739 42.8542 48.745 44.5117 49.4872 45.6992C50.2294 46.8743 51.2808 47.4619 52.6415 47.4619Z" fill="url(#paint6_linear_434_2268)"/>
<path d="M22.0669 68.9894C21.6046 68.9894 21.1866 68.9102 20.8129 68.7519C20.4456 68.5935 20.1543 68.3655 19.9389 68.0679C19.7236 67.7702 19.6128 67.4187 19.6064 67.0134H21.0314C21.0504 67.2857 21.1454 67.501 21.3164 67.6594C21.4938 67.8177 21.7344 67.8969 22.0384 67.8969C22.3488 67.8969 22.5926 67.824 22.7699 67.6784C22.9473 67.5264 23.0359 67.33 23.0359 67.0894C23.0359 66.893 22.9758 66.7315 22.8554 66.6049C22.7351 66.4782 22.5831 66.38 22.3994 66.3104C22.2221 66.2344 21.9751 66.152 21.6584 66.0634C21.2278 65.9367 20.8763 65.8132 20.6039 65.6929C20.3379 65.5662 20.1068 65.3794 19.9104 65.1324C19.7204 64.879 19.6254 64.5434 19.6254 64.1254C19.6254 63.7327 19.7236 63.3907 19.9199 63.0994C20.1163 62.808 20.3918 62.5864 20.7464 62.4344C21.1011 62.276 21.5064 62.1969 21.9624 62.1969C22.6464 62.1969 23.2006 62.3647 23.6249 62.7004C24.0556 63.0297 24.2931 63.492 24.3374 64.0874H22.8744C22.8618 63.8594 22.7636 63.6725 22.5799 63.5269C22.4026 63.3749 22.1651 63.2989 21.8674 63.2989C21.6078 63.2989 21.3988 63.3654 21.2404 63.4984C21.0884 63.6314 21.0124 63.8245 21.0124 64.0779C21.0124 64.2552 21.0694 64.404 21.1834 64.5244C21.3038 64.6384 21.4494 64.7334 21.6204 64.8094C21.7978 64.879 22.0448 64.9614 22.3614 65.0564C22.7921 65.183 23.1436 65.3097 23.4159 65.4364C23.6883 65.563 23.9226 65.753 24.1189 66.0064C24.3153 66.2597 24.4134 66.5922 24.4134 67.0039C24.4134 67.3585 24.3216 67.6879 24.1379 67.9919C23.9543 68.2959 23.6851 68.5397 23.3304 68.7234C22.9758 68.9007 22.5546 68.9894 22.0669 68.9894ZM30.5825 67.6594H27.9415L27.5045 68.9229H26.108L28.4925 62.2824H30.041L32.4255 68.9229H31.0195L30.5825 67.6594ZM30.2215 66.5954L29.262 63.8214L28.3025 66.5954H30.2215ZM40.2233 62.2919L37.7913 68.9229H36.1763L33.7443 62.2919H35.1693L36.9933 67.5644L38.8078 62.2919H40.2233ZM43.3007 62.2919V68.9229H41.9707V62.2919H43.3007ZM51.2362 68.9229H49.9062L46.8947 64.3724V68.9229H45.5647V62.2824H46.8947L49.9062 66.8424V62.2824H51.2362V68.9229ZM58.1176 64.2869C57.9656 64.0082 57.7566 63.796 57.4906 63.6504C57.2246 63.5047 56.9142 63.4319 56.5596 63.4319C56.1669 63.4319 55.8186 63.5205 55.5146 63.6979C55.2106 63.8752 54.9731 64.1285 54.8021 64.4579C54.6311 64.7872 54.5456 65.1672 54.5456 65.5979C54.5456 66.0412 54.6311 66.4275 54.8021 66.7569C54.9794 67.0862 55.2232 67.3395 55.5336 67.5169C55.8439 67.6942 56.2049 67.7829 56.6166 67.7829C57.1232 67.7829 57.5381 67.6499 57.8611 67.3839C58.1841 67.1115 58.3962 66.7347 58.4976 66.2534H56.2176V65.2369H59.8086V66.3959C59.7199 66.8582 59.5299 67.2857 59.2386 67.6784C58.9472 68.071 58.5704 68.3877 58.1081 68.6284C57.6521 68.8627 57.1391 68.9799 56.5691 68.9799C55.9294 68.9799 55.3499 68.8374 54.8306 68.5524C54.3176 68.261 53.9122 67.8589 53.6146 67.3459C53.3232 66.8329 53.1776 66.2502 53.1776 65.5979C53.1776 64.9455 53.3232 64.3629 53.6146 63.8499C53.9122 63.3305 54.3176 62.9284 54.8306 62.6434C55.3499 62.352 55.9262 62.2064 56.5596 62.2064C57.3069 62.2064 57.9561 62.39 58.5071 62.7574C59.0581 63.1184 59.4381 63.6282 59.6471 64.2869H58.1176ZM64.0321 68.9894C63.5697 68.9894 63.1517 68.9102 62.7781 68.7519C62.4107 68.5935 62.1194 68.3655 61.9041 68.0679C61.6887 67.7702 61.5779 67.4187 61.5716 67.0134H62.9966C63.0156 67.2857 63.1106 67.501 63.2816 67.6594C63.4589 67.8177 63.6996 67.8969 64.0036 67.8969C64.3139 67.8969 64.5577 67.824 64.7351 67.6784C64.9124 67.5264 65.0011 67.33 65.0011 67.0894C65.0011 66.893 64.9409 66.7315 64.8206 66.6049C64.7002 66.4782 64.5482 66.38 64.3646 66.3104C64.1872 66.2344 63.9402 66.152 63.6236 66.0634C63.1929 65.9367 62.8414 65.8132 62.5691 65.6929C62.3031 65.5662 62.0719 65.3794 61.8756 65.1324C61.6856 64.879 61.5906 64.5434 61.5906 64.1254C61.5906 63.7327 61.6887 63.3907 61.8851 63.0994C62.0814 62.808 62.3569 62.5864 62.7116 62.4344C63.0662 62.276 63.4716 62.1969 63.9276 62.1969C64.6116 62.1969 65.1657 62.3647 65.5901 62.7004C66.0207 63.0297 66.2582 63.492 66.3026 64.0874H64.8396C64.8269 63.8594 64.7287 63.6725 64.5451 63.5269C64.3677 63.3749 64.1302 63.2989 63.8326 63.2989C63.5729 63.2989 63.3639 63.3654 63.2056 63.4984C63.0536 63.6314 62.9776 63.8245 62.9776 64.0779C62.9776 64.2552 63.0346 64.404 63.1486 64.5244C63.2689 64.6384 63.4146 64.7334 63.5856 64.8094C63.7629 64.879 64.0099 64.9614 64.3266 65.0564C64.7572 65.183 65.1087 65.3097 65.3811 65.4364C65.6534 65.563 65.8877 65.753 66.0841 66.0064C66.2804 66.2597 66.3786 66.5922 66.3786 67.0039C66.3786 67.3585 66.2867 67.6879 66.1031 67.9919C65.9194 68.2959 65.6502 68.5397 65.2956 68.7234C64.9409 68.9007 64.5197 68.9894 64.0321 68.9894Z" fill="#423113"/>
<defs>
<filter id="filter0_i_434_2268" x="8.5498" y="7.55859" width="68.9512" height="66.0889" filterUnits="userSpaceOnUse" color-interpolation-filters="sRGB">
<feFlood flood-opacity="0" result="BackgroundImageFix"/>
<feBlend mode="normal" in="SourceGraphic" in2="BackgroundImageFix" result="shape"/>
<feColorMatrix in="SourceAlpha" type="matrix" values="0 0 0 0 0 0 0 0 0 0 0 0 0 0 0 0 0 0 127 0" result="hardAlpha"/>
<feOffset/>
<feGaussianBlur stdDeviation="1.9"/>
<feComposite in2="hardAlpha" operator="arithmetic" k2="-1" k3="1"/>
<feColorMatrix type="matrix" values="0 0 0 0 0 0 0 0 0 0 0 0 0 0 0 0 0 0 0.25 0"/>
<feBlend mode="normal" in2="shape" result="effect1_innerShadow_434_2268"/>
</filter>
<linearGradient id="paint0_linear_434_2268" x1="9.025" y1="14.373" x2="60.325" y2="65.198" gradientUnits="userSpaceOnUse">
<stop stop-color="#EFEFBB"/>
<stop offset="1" stop-color="#A07C32"/>
</linearGradient>
<linearGradient id="paint1_linear_434_2268" x1="43.0254" y1="7.55957" x2="43.0254" y2="73.6486" gradientUnits="userSpaceOnUse">
<stop stop-color="#3FBEF1"/>
<stop offset="1" stop-color="#0259FE"/>
</linearGradient>
<linearGradient id="paint2_linear_434_2268" x1="-13.6289" y1="14.5021" x2="98.4947" y2="14.5021" gradientUnits="userSpaceOnUse">
<stop stop-color="white" stop-opacity="0.6"/>
<stop offset="1" stop-color="white" stop-opacity="0"/>
</linearGradient>
<linearGradient id="paint3_linear_434_2268" x1="21.7041" y1="-10.3759" x2="133.828" y2="-10.3759" gradientUnits="userSpaceOnUse">
<stop stop-color="white" stop-opacity="0.6"/>
<stop offset="1" stop-color="white" stop-opacity="0"/>
</linearGradient>
<linearGradient id="paint4_linear_434_2268" x1="5.89062" y1="64.6227" x2="79.9906" y2="64.6227" gradientUnits="userSpaceOnUse">
<stop stop-color="#C3AE6E"/>
<stop offset="1" stop-color="#A07C32"/>
</linearGradient>
<linearGradient id="paint5_linear_434_2268" x1="10.4502" y1="72.6975" x2="76.9502" y2="72.6975" gradientUnits="userSpaceOnUse">
<stop stop-color="#C3AE6E"/>
<stop offset="1" stop-color="#A07C32"/>
</linearGradient>
<linearGradient id="paint6_linear_434_2268" x1="26.7666" y1="23.8729" x2="80.7574" y2="89.8878" gradientUnits="userSpaceOnUse">
<stop stop-color="white"/>
<stop offset="1" stop-color="#A19E80"/>
</linearGradient>
</defs>
</svg>
