<svg width="86" height="89" viewBox="0 0 86 89" fill="none" xmlns="http://www.w3.org/2000/svg">
<path d="M26.9824 7.16893C33.4985 0.765242 40.5 -0.161934 43.3435 0.186151C43.4328 0.197089 43.5171 0.197089 43.6065 0.186151C46.4504 -0.161993 53.4538 0.765557 59.9708 7.1722C60.0879 7.28732 60.2335 7.37314 60.3918 7.41689L82.7931 13.6099C84.6289 14.1174 85.8053 15.9056 85.5448 17.7923L77.4065 76.7237C77.2001 78.2186 76.1286 79.4497 74.6764 79.8604L43.7299 88.6123C43.5631 88.6595 43.3866 88.6601 43.2195 88.6142L11.3473 79.8484C9.88258 79.4455 8.79852 78.2091 8.59071 76.7042L0.45936 17.8228C0.196998 15.923 1.39144 14.1254 3.24455 13.6313L26.5531 7.41588C26.7146 7.37282 26.8632 7.28609 26.9824 7.16893Z" fill="url(#paint0_linear_434_2252)"/>
<path d="M28.7711 9.79966C34.6045 4.18993 40.825 3.45111 43.2481 3.79726C45.6712 3.45111 51.8916 4.18993 57.7251 9.79966C57.966 10.0314 58.2611 10.2038 58.5841 10.29L80.3356 16.0902C81.2569 16.3358 81.8534 17.2263 81.7301 18.1718L74.2098 75.827C74.0864 76.7734 73.2801 77.4813 72.3258 77.4813L44.6895 84.7046C43.7444 84.9516 42.7518 84.9516 41.8067 84.7046L14.1704 77.4813C13.2161 77.4813 12.4098 76.7734 12.2864 75.827L4.7661 18.1718C4.64278 17.2263 5.23931 16.3358 6.1606 16.0902L27.9121 10.29C28.2351 10.2038 28.5301 10.0314 28.7711 9.79966Z" fill="white"/>
<g filter="url(#filter0_i_434_2252)">
<path d="M30.0913 12.9647C35.3074 7.97146 40.8595 7.3134 43.0254 7.62282C45.1913 7.3134 50.7434 7.97146 55.9594 12.9647C56.2009 13.1959 56.4955 13.3682 56.8185 13.4543L76.0904 18.5933C77.0117 18.839 77.6082 19.7294 77.4849 20.6749L70.7912 71.9933C70.6677 72.9397 69.8615 73.6476 68.9071 73.6476H17.1437C16.1893 73.6476 15.3831 72.9397 15.2596 71.9933L8.56591 20.6749C8.44258 19.7294 9.03911 18.839 9.96041 18.5933L29.2323 13.4543C29.5553 13.3682 29.8499 13.1959 30.0913 12.9647Z" fill="#94C0C1"/>
</g>
<g opacity="0.2">
<mask id="mask0_434_2252" style="mask-type:alpha" maskUnits="userSpaceOnUse" x="8" y="7" width="70" height="67">
<path d="M30.0913 12.9657C35.3074 7.97243 40.8595 7.31438 43.0254 7.62379C45.1913 7.31438 50.7434 7.97243 55.9594 12.9657C56.2009 13.1969 56.4955 13.3692 56.8185 13.4553L76.0904 18.5943C77.0117 18.8399 77.6082 19.7304 77.4849 20.6759L70.7912 71.9943C70.6677 72.9407 69.8615 73.6486 68.9071 73.6486H17.1437C16.1893 73.6486 15.3831 72.9407 15.2596 71.9943L8.56591 20.6759C8.44258 19.7304 9.03911 18.8399 9.96041 18.5943L29.2323 13.4553C29.5553 13.3692 29.8499 13.1969 30.0913 12.9657Z" fill="url(#paint1_linear_434_2252)"/>
</mask>
<g mask="url(#mask0_434_2252)">
<rect x="-13.6289" y="7.90234" width="112.124" height="13.1995" transform="rotate(39.7716 -13.6289 7.90234)" fill="url(#paint2_linear_434_2252)"/>
<rect x="21.7041" y="-23.3271" width="112.124" height="25.9024" transform="rotate(39.7716 21.7041 -23.3271)" fill="url(#paint3_linear_434_2252)"/>
</g>
</g>
<path d="M5.89062 57.9727H79.9906L78.3237 69.6414C78.1899 70.5774 77.3883 71.2727 76.4428 71.2727H9.43848C8.49295 71.2727 7.6913 70.5774 7.55758 69.6414L5.89062 57.9727Z" fill="url(#paint4_linear_434_2252)"/>
<rect x="10.4502" y="71.2725" width="66.5" height="2.85" fill="url(#paint5_linear_434_2252)"/>
<path d="M22.01 51.1729V27.8682L22.8821 29.1113L17.4641 32.0801V27.8125L25.0715 23.8232H26.4817V51.1729H22.01ZM39.6562 51.4697C36.8854 51.4697 34.7331 50.4183 33.1992 48.3154C31.6654 46.2002 30.8984 43.2191 30.8984 39.3721V35.624C30.8984 31.777 31.6654 28.8021 33.1992 26.6992C34.7331 24.584 36.8854 23.5264 39.6562 23.5264C42.4395 23.5264 44.5856 24.584 46.0947 26.6992C47.6162 28.8021 48.377 31.777 48.377 35.624V39.3721C48.377 43.2067 47.6162 46.1816 46.0947 48.2969C44.5856 50.4121 42.4395 51.4697 39.6562 51.4697ZM39.6562 47.4619C41.0046 47.4619 42.0498 46.8743 42.792 45.6992C43.5342 44.5241 43.9053 42.8665 43.9053 40.7266V34.2881C43.9053 32.1357 43.5342 30.472 42.792 29.2969C42.0498 28.1217 41.0046 27.5342 39.6562 27.5342C38.2956 27.5342 37.2441 28.1279 36.502 29.3154C35.7598 30.4906 35.3887 32.1481 35.3887 34.2881V40.7266C35.3887 42.8542 35.7598 44.5117 36.502 45.6992C37.2441 46.8743 38.2956 47.4619 39.6562 47.4619ZM60.3826 51.4697C57.6117 51.4697 55.4594 50.4183 53.9255 48.3154C52.3917 46.2002 51.6248 43.2191 51.6248 39.3721V35.624C51.6248 31.777 52.3917 28.8021 53.9255 26.6992C55.4594 24.584 57.6117 23.5264 60.3826 23.5264C63.1658 23.5264 65.3119 24.584 66.8211 26.6992C68.3425 28.8021 69.1033 31.777 69.1033 35.624V39.3721C69.1033 43.2067 68.3425 46.1816 66.8211 48.2969C65.3119 50.4121 63.1658 51.4697 60.3826 51.4697ZM60.3826 47.4619C61.7309 47.4619 62.7761 46.8743 63.5183 45.6992C64.2605 44.5241 64.6316 42.8665 64.6316 40.7266V34.2881C64.6316 32.1357 64.2605 30.472 63.5183 29.2969C62.7761 28.1217 61.7309 27.5342 60.3826 27.5342C59.0219 27.5342 57.9705 28.1279 57.2283 29.3154C56.4861 30.4906 56.115 32.1481 56.115 34.2881V40.7266C56.115 42.8542 56.4861 44.5117 57.2283 45.6992C57.9705 46.8743 59.0219 47.4619 60.3826 47.4619Z" fill="url(#paint6_linear_434_2252)"/>
<path d="M22.0679 68.9894C21.6056 68.9894 21.1876 68.9102 20.8139 68.7519C20.4466 68.5935 20.1552 68.3655 19.9399 68.0679C19.7246 67.7702 19.6137 67.4187 19.6074 67.0134H21.0324C21.0514 67.2857 21.1464 67.501 21.3174 67.6594C21.4947 67.8177 21.7354 67.8969 22.0394 67.8969C22.3497 67.8969 22.5936 67.824 22.7709 67.6784C22.9482 67.5264 23.0369 67.33 23.0369 67.0894C23.0369 66.893 22.9767 66.7315 22.8564 66.6049C22.7361 66.4782 22.5841 66.38 22.4004 66.3104C22.2231 66.2344 21.9761 66.152 21.6594 66.0634C21.2287 65.9367 20.8772 65.8132 20.6049 65.6929C20.3389 65.5662 20.1077 65.3794 19.9114 65.1324C19.7214 64.879 19.6264 64.5434 19.6264 64.1254C19.6264 63.7327 19.7246 63.3907 19.9209 63.0994C20.1172 62.808 20.3927 62.5864 20.7474 62.4344C21.1021 62.276 21.5074 62.1969 21.9634 62.1969C22.6474 62.1969 23.2016 62.3647 23.6259 62.7004C24.0566 63.0297 24.2941 63.492 24.3384 64.0874H22.8754C22.8627 63.8594 22.7646 63.6725 22.5809 63.5269C22.4036 63.3749 22.1661 63.2989 21.8684 63.2989C21.6087 63.2989 21.3997 63.3654 21.2414 63.4984C21.0894 63.6314 21.0134 63.8245 21.0134 64.0779C21.0134 64.2552 21.0704 64.404 21.1844 64.5244C21.3047 64.6384 21.4504 64.7334 21.6214 64.8094C21.7987 64.879 22.0457 64.9614 22.3624 65.0564C22.7931 65.183 23.1446 65.3097 23.4169 65.4364C23.6892 65.563 23.9236 65.753 24.1199 66.0064C24.3162 66.2597 24.4144 66.5922 24.4144 67.0039C24.4144 67.3585 24.3226 67.6879 24.1389 67.9919C23.9552 68.2959 23.6861 68.5397 23.3314 68.7234C22.9767 68.9007 22.5556 68.9894 22.0679 68.9894ZM30.5835 67.6594H27.9425L27.5055 68.9229H26.109L28.4935 62.2824H30.042L32.4265 68.9229H31.0205L30.5835 67.6594ZM30.2225 66.5954L29.263 63.8214L28.3035 66.5954H30.2225ZM40.2243 62.2919L37.7923 68.9229H36.1773L33.7453 62.2919H35.1703L36.9943 67.5644L38.8088 62.2919H40.2243ZM43.3017 62.2919V68.9229H41.9717V62.2919H43.3017ZM51.2372 68.9229H49.9072L46.8957 64.3724V68.9229H45.5657V62.2824H46.8957L49.9072 66.8424V62.2824H51.2372V68.9229ZM58.1185 64.2869C57.9665 64.0082 57.7575 63.796 57.4915 63.6504C57.2255 63.5047 56.9152 63.4319 56.5605 63.4319C56.1679 63.4319 55.8195 63.5205 55.5155 63.6979C55.2115 63.8752 54.974 64.1285 54.803 64.4579C54.632 64.7872 54.5465 65.1672 54.5465 65.5979C54.5465 66.0412 54.632 66.4275 54.803 66.7569C54.9804 67.0862 55.2242 67.3395 55.5345 67.5169C55.8449 67.6942 56.2059 67.7829 56.6175 67.7829C57.1242 67.7829 57.539 67.6499 57.862 67.3839C58.185 67.1115 58.3972 66.7347 58.4985 66.2534H56.2185V65.2369H59.8095V66.3959C59.7209 66.8582 59.5309 67.2857 59.2395 67.6784C58.9482 68.071 58.5714 68.3877 58.109 68.6284C57.653 68.8627 57.14 68.9799 56.57 68.9799C55.9304 68.9799 55.3509 68.8374 54.8315 68.5524C54.3185 68.261 53.9132 67.8589 53.6155 67.3459C53.3242 66.8329 53.1785 66.2502 53.1785 65.5979C53.1785 64.9455 53.3242 64.3629 53.6155 63.8499C53.9132 63.3305 54.3185 62.9284 54.8315 62.6434C55.3509 62.352 55.9272 62.2064 56.5605 62.2064C57.3079 62.2064 57.957 62.39 58.508 62.7574C59.059 63.1184 59.439 63.6282 59.648 64.2869H58.1185ZM64.033 68.9894C63.5707 68.9894 63.1527 68.9102 62.779 68.7519C62.4117 68.5935 62.1204 68.3655 61.905 68.0679C61.6897 67.7702 61.5789 67.4187 61.5725 67.0134H62.9975C63.0165 67.2857 63.1115 67.501 63.2825 67.6594C63.4599 67.8177 63.7005 67.8969 64.0045 67.8969C64.3149 67.8969 64.5587 67.824 64.736 67.6784C64.9134 67.5264 65.002 67.33 65.002 67.0894C65.002 66.893 64.9419 66.7315 64.8215 66.6049C64.7012 66.4782 64.5492 66.38 64.3655 66.3104C64.1882 66.2344 63.9412 66.152 63.6245 66.0634C63.1939 65.9367 62.8424 65.8132 62.57 65.6929C62.304 65.5662 62.0729 65.3794 61.8765 65.1324C61.6865 64.879 61.5915 64.5434 61.5915 64.1254C61.5915 63.7327 61.6897 63.3907 61.886 63.0994C62.0824 62.808 62.3579 62.5864 62.7125 62.4344C63.0672 62.276 63.4725 62.1969 63.9285 62.1969C64.6125 62.1969 65.1667 62.3647 65.591 62.7004C66.0217 63.0297 66.2592 63.492 66.3035 64.0874H64.8405C64.8279 63.8594 64.7297 63.6725 64.546 63.5269C64.3687 63.3749 64.1312 63.2989 63.8335 63.2989C63.5739 63.2989 63.3649 63.3654 63.2065 63.4984C63.0545 63.6314 62.9785 63.8245 62.9785 64.0779C62.9785 64.2552 63.0355 64.404 63.1495 64.5244C63.2699 64.6384 63.4155 64.7334 63.5865 64.8094C63.7639 64.879 64.0109 64.9614 64.3275 65.0564C64.7582 65.183 65.1097 65.3097 65.382 65.4364C65.6544 65.563 65.8887 65.753 66.085 66.0064C66.2814 66.2597 66.3795 66.5922 66.3795 67.0039C66.3795 67.3585 66.2877 67.6879 66.104 67.9919C65.9204 68.2959 65.6512 68.5397 65.2965 68.7234C64.9419 68.9007 64.5207 68.9894 64.033 68.9894Z" fill="#324A4B"/>
<defs>
<filter id="filter0_i_434_2252" x="8.5498" y="7.55859" width="68.9512" height="66.0889" filterUnits="userSpaceOnUse" color-interpolation-filters="sRGB">
<feFlood flood-opacity="0" result="BackgroundImageFix"/>
<feBlend mode="normal" in="SourceGraphic" in2="BackgroundImageFix" result="shape"/>
<feColorMatrix in="SourceAlpha" type="matrix" values="0 0 0 0 0 0 0 0 0 0 0 0 0 0 0 0 0 0 127 0" result="hardAlpha"/>
<feOffset/>
<feGaussianBlur stdDeviation="1.9"/>
<feComposite in2="hardAlpha" operator="arithmetic" k2="-1" k3="1"/>
<feColorMatrix type="matrix" values="0 0 0 0 0 0 0 0 0 0 0 0 0 0 0 0 0 0 0.25 0"/>
<feBlend mode="normal" in2="shape" result="effect1_innerShadow_434_2252"/>
</filter>
<linearGradient id="paint0_linear_434_2252" x1="9.025" y1="14.373" x2="60.325" y2="65.198" gradientUnits="userSpaceOnUse">
<stop stop-color="#9AC3C7"/>
<stop offset="1" stop-color="#618989"/>
</linearGradient>
<linearGradient id="paint1_linear_434_2252" x1="43.0254" y1="7.55957" x2="43.0254" y2="73.6486" gradientUnits="userSpaceOnUse">
<stop stop-color="#3FBEF1"/>
<stop offset="1" stop-color="#0259FE"/>
</linearGradient>
<linearGradient id="paint2_linear_434_2252" x1="-13.6289" y1="14.5021" x2="98.4947" y2="14.5021" gradientUnits="userSpaceOnUse">
<stop stop-color="white" stop-opacity="0.6"/>
<stop offset="1" stop-color="white" stop-opacity="0"/>
</linearGradient>
<linearGradient id="paint3_linear_434_2252" x1="21.7041" y1="-10.3759" x2="133.828" y2="-10.3759" gradientUnits="userSpaceOnUse">
<stop stop-color="white" stop-opacity="0.6"/>
<stop offset="1" stop-color="white" stop-opacity="0"/>
</linearGradient>
<linearGradient id="paint4_linear_434_2252" x1="5.89062" y1="64.6227" x2="79.9906" y2="64.6227" gradientUnits="userSpaceOnUse">
<stop stop-color="#82ABAD"/>
<stop offset="1" stop-color="#618989"/>
</linearGradient>
<linearGradient id="paint5_linear_434_2252" x1="10.4502" y1="72.6975" x2="76.9502" y2="72.6975" gradientUnits="userSpaceOnUse">
<stop stop-color="#82ABAD"/>
<stop offset="1" stop-color="#618989"/>
</linearGradient>
<linearGradient id="paint6_linear_434_2252" x1="20.6196" y1="23.8729" x2="69.1785" y2="104.968" gradientUnits="userSpaceOnUse">
<stop stop-color="white"/>
<stop offset="1" stop-color="#D9E7E8"/>
</linearGradient>
</defs>
</svg>
