<svg width="24" height="24" viewBox="0 0 24 24" fill="none" xmlns="http://www.w3.org/2000/svg">
<path d="M16.6579 21.2002C17.9019 21.2002 18.524 21.2002 19.0533 20.992C19.5206 20.8082 19.9344 20.51 20.2566 20.1247C20.6214 19.6884 20.8181 19.0983 21.2116 17.9181L21.4194 17.2946C21.6762 16.5242 21.8046 16.1391 21.8292 15.7497C21.851 15.4046 21.813 15.0584 21.7168 14.7263C21.6084 14.3516 21.3995 14.0034 20.9817 13.3071L19.1175 10.2002L5.11752 10.2002L3.25337 13.3071C2.83558 14.0034 2.62669 14.3516 2.51821 14.7263C2.42208 15.0584 2.38407 15.4046 2.40587 15.7497C2.43047 16.1391 2.55887 16.5242 2.81565 17.2946L3.02348 17.9181C3.41689 19.0983 3.6136 19.6884 3.97845 20.1247C4.30064 20.51 4.7144 20.8082 5.18178 20.992C5.71106 21.2002 6.33309 21.2002 7.57717 21.2002H16.6579Z" fill="#E1E6EA" stroke="#E1E6EA" stroke-width="1.8" stroke-linecap="round" stroke-linejoin="round"/>
<path d="M19.6397 9.03955C19.8375 8.34717 19.9364 8.00097 19.8587 7.72708C19.7907 7.48715 19.6354 7.28132 19.4234 7.14996C19.1814 7 18.8213 7 18.1012 7L6.34358 7C5.62348 7 5.26344 7 5.02143 7.14996C4.80943 7.28132 4.65417 7.48715 4.5861 7.72708C4.5084 8.00097 4.60731 8.34717 4.80514 9.03956L19.6397 9.03955Z" fill="#4373F4" stroke="#4373F4" stroke-width="1.8" stroke-linecap="round" stroke-linejoin="round"/>
<path d="M12.2227 7H8.68694C8.16598 7 7.66636 6.78929 7.29798 6.41421C6.92961 6.03914 6.72266 5.53043 6.72266 5C6.72266 4.46957 6.92961 3.96086 7.29798 3.58579C7.66636 3.21071 8.16598 3 8.68694 3C11.4369 3 12.2227 7 12.2227 7ZM12.2227 7H15.7584C16.2793 7 16.779 6.78929 17.1473 6.41421C17.5157 6.03914 17.7227 5.53043 17.7227 5C17.7227 4.46957 17.5157 3.96086 17.1473 3.58579C16.779 3.21071 16.2793 3 15.7584 3C13.0084 3 12.2227 7 12.2227 7Z" stroke="#4373F4" stroke-width="1.8" stroke-linecap="round" stroke-linejoin="round"/>
</svg>
